<svg xmlns="http://www.w3.org/2000/svg" xmlns:xlink="http://www.w3.org/1999/xlink" viewBox="0 0 371.61 516.86"><defs><style>.cls-1{fill:none;}.cls-2,.cls-5{fill:#e6007e;}.cls-3{fill:#00b1eb;}.cls-4{fill:#009fe3;stroke:#009fe3;}.cls-18,.cls-20,.cls-22,.cls-4,.cls-5{stroke-miterlimit:10;}.cls-5{stroke:#e5087e;}.cls-6{fill:#282f33;}.cls-7{fill:#232728;}.cls-8{fill:#2c3435;}.cls-9{fill:#202626;}.cls-10{fill:#151819;}.cls-11{clip-path:url(#clip-path);}.cls-12{fill:#526570;}.cls-13{fill:#24292b;}.cls-14{fill:#d6e4ea;}.cls-15{fill:#768489;}.cls-16{fill:#686e72;}.cls-17{fill:#474a4c;}.cls-18{fill:#878c91;stroke:#5b5e60;}.cls-18,.cls-20,.cls-22{stroke-width:1.05px;}.cls-19{fill:#aab4bc;}.cls-20,.cls-25{fill:red;}.cls-20{stroke:#5b1e1e;}.cls-21{fill:#ffd9d9;}.cls-22{fill:#a0a0a0;stroke:#fff;}.cls-23{fill:#fff;}.cls-24{fill:#efefef;}.cls-25{opacity:0.3;}</style><clipPath id="clip-path" transform="translate(21.12)"><path class="cls-1" d="M60.63,82.06l-12.15,26.2L25.36,120a48.35,48.35,0,0,1,1.18-8c.86-3,3.95-13.07,3.95-13.07l-1.67-1,9.53-16.09L40.1,83l4.81-7Z"/></clipPath></defs><g id="Camada_2" data-name="Camada 2"><g id="Camada_1-2" data-name="Camada 1"><g id="scicrow"><path class="cls-2" d="M9.28,352.73v7.76s9.36,2.71,16.36,2.71c18.29,0,21.14-4.49,21.14-15.39S35.35,334.64,28,332.07s-11.15-2.75-11.15-8.89,5.33-6.95,13.17-6.95,12.52,3.18,12.52,3.18v-6.73s-5.81-2.4-15.3-2.4c-18.28,0-17.63,7.18-17.63,14.28s7.13,11.3,19,15.86S39,345.16,39,349s-.83,8.34-12.59,8.34S9.28,352.73,9.28,352.73Z" transform="translate(21.12)"/><path class="cls-2" d="M57.8,340.63c0,19,6.61,22.31,22.54,22.31a52.66,52.66,0,0,0,14.44-2.34v-6.1s-3.65,2.62-13.73,2.62-15-1.83-15-16.49v0c0-14.66,4.91-16.48,15-16.48S94,326.84,94,326.84v-6.49a53.71,53.71,0,0,0-13.65-2.05c-15.93,0-22.54,3.28-22.54,22.31Z" transform="translate(21.12)"/><path class="cls-2" d="M152.5,336.75c0,22.56,7.41,26.45,25.26,26.45a55.94,55.94,0,0,0,16.17-2.78v-7.23s-4.09,3.1-15.38,3.1-16.79-2.16-16.79-19.54v0c0-17.37,5.5-19.54,16.79-19.54s14.5,3.22,14.5,3.22v-7.7a57.36,57.36,0,0,0-15.29-2.42c-17.85,0-25.26,3.88-25.26,26.44Z" transform="translate(21.12)"/><path class="cls-2" d="M114.63,319.25v5.82h3.18a4.48,4.48,0,0,1,4.47,4.48V362H130v-39.7a3,3,0,0,0-3-3Z" transform="translate(21.12)"/><circle class="cls-2" cx="147.28" cy="304.71" r="4.86"/><path class="cls-2" d="M209.16,362V319.25h7.75v5.3s-.92-6.25,15.85-6.25c6.39,0,8,1,8,1v12.12h-5.82v-6s.43-.39-3.15-.39c-14.38,0-14.83,9.09-14.83,9.09V362Z" transform="translate(21.12)"/><path class="cls-2" d="M290,340.61c0,20.71-.82,22.35-20.14,22.35s-20.15-2.13-20.15-22.35,0-22.31,20.15-22.31S290,319.9,290,340.61Zm-20.14-16.48c-11.89,0-11.89,1.54-11.89,16.49s.49,16.52,11.89,16.52,11.88-1.21,11.88-16.52S281.75,324.13,269.87,324.13Z" transform="translate(21.12)"/><polygon class="cls-2" points="339.54 323.14 342.84 323.14 350.51 352.69 356.18 319.25 363.34 319.25 355.55 361.98 347.84 361.98 339.54 330.03 331.24 361.98 323.52 361.98 315.73 319.25 322.89 319.25 328.56 352.69 336.23 323.14 339.54 323.14"/><path class="cls-2" d="M10.81,420.56s5-5.88,23.13-5.88c12.59,0,17-.05,17,16.1s0,20.53-31.76,20.53v10.3c30.68,0,34.15.15,34.15,22.62s.14,21.68-21.61,21.68-22.41-5.07-22.41-5.07v12.62s.41,3.19,22.12,3.19,37.13,4.88,37.13-32.42c0-24.13,0-26.72-22.62-28.86,20.19-1.6,19.55-2.29,19.36-26.94C65.06,401.36,64.09,404,34.74,404c-19.73,0-23.93,4.11-23.93,4.11Z" transform="translate(21.12)"/><path class="cls-2" d="M89.85,460.23c0-56.22,4.54-56.28,36.7-56.28s36.69.06,36.69,56.28-4,56.42-36.69,56.42S89.85,516.45,89.85,460.23Zm36.7-45.54c-18.81,0-21.47,0-21.47,45.55,0,18.35.39,29.34,2.11,35.91l29.43-81A64.33,64.33,0,0,0,126.55,414.69Zm19.27,9.65-29.46,81.1a64.1,64.1,0,0,0,10.19.48c19.12,0,21.46-.16,21.46-45.68C148,441.85,147.58,430.88,145.82,424.34Zm-38.63,71.81v0" transform="translate(21.12)"/><path class="cls-2" d="M179.34,460.23C179.34,404,183.88,404,216,404s36.69.06,36.69,56.28-4,56.42-36.69,56.42S179.34,516.45,179.34,460.23ZM216,414.69c-18.81,0-21.47,0-21.47,45.55,0,18.35.39,29.34,2.11,35.91l29.43-81A64.4,64.4,0,0,0,216,414.69Zm19.27,9.65-29.46,81.1a64.1,64.1,0,0,0,10.19.48c19.12,0,21.46-.16,21.46-45.68C237.5,441.85,237.07,430.88,235.31,424.34Zm-38.63,71.81v0" transform="translate(21.12)"/><path class="cls-2" d="M268.83,460.23c0-56.22,4.54-56.28,36.7-56.28s36.69.06,36.69,56.28-4,56.42-36.69,56.42S268.83,516.45,268.83,460.23Zm36.7-45.54c-18.81,0-21.47,0-21.47,45.55,0,18.35.39,29.34,2.11,35.91l29.42-81A64.2,64.2,0,0,0,305.53,414.69Zm19.27,9.65-29.46,81.1a64.1,64.1,0,0,0,10.19.48c19.12,0,21.46-.16,21.46-45.68C327,441.85,326.56,430.88,324.8,424.34Zm-38.63,71.81v0" transform="translate(21.12)"/><path class="cls-3" d="M5.86,352.73v7.76s9.36,2.71,16.35,2.71c18.29,0,21.14-4.49,21.14-15.39s-11.43-13.17-18.74-15.74-11.16-2.75-11.16-8.89,5.33-6.95,13.17-6.95,12.53,3.18,12.53,3.18v-6.73s-5.82-2.4-15.31-2.4c-18.28,0-17.63,7.18-17.63,14.28s7.14,11.3,19,15.86,10.38,4.74,10.38,8.61-.82,8.34-12.59,8.34S5.86,352.73,5.86,352.73Z" transform="translate(21.12)"/><path class="cls-3" d="M54.37,340.63c0,19,6.61,22.31,22.55,22.31a52.66,52.66,0,0,0,14.44-2.34v-6.1s-3.66,2.62-13.74,2.62-15-1.83-15-16.49v0c0-14.66,4.92-16.48,15-16.48s12.95,2.71,12.95,2.71v-6.49a53.71,53.71,0,0,0-13.65-2.05c-15.94,0-22.55,3.28-22.55,22.31Z" transform="translate(21.12)"/><path class="cls-3" d="M149.08,336.75c0,22.56,7.4,26.45,25.25,26.45a56,56,0,0,0,16.18-2.78v-7.23s-4.1,3.1-15.39,3.1-16.79-2.16-16.79-19.54v0c0-17.37,5.5-19.54,16.79-19.54s14.5,3.22,14.5,3.22v-7.7a57.36,57.36,0,0,0-15.29-2.42c-17.85,0-25.25,3.88-25.25,26.44Z" transform="translate(21.12)"/><path class="cls-3" d="M111.21,319.25v5.82h3.17a4.49,4.49,0,0,1,4.48,4.48V362h7.75v-39.7a3,3,0,0,0-3-3Z" transform="translate(21.12)"/><circle class="cls-3" cx="143.85" cy="304.71" r="4.86"/><path class="cls-3" d="M205.73,362V319.25h7.75v5.3s-.91-6.25,15.86-6.25c6.38,0,7.95,1,7.95,1v12.12h-5.83v-6s.43-.39-3.14-.39c-14.38,0-14.84,9.09-14.84,9.09V362Z" transform="translate(21.12)"/><path class="cls-3" d="M286.59,340.61c0,20.71-.83,22.35-20.15,22.35s-20.14-2.13-20.14-22.35,0-22.31,20.14-22.31S286.59,319.9,286.59,340.61Zm-20.15-16.48c-11.88,0-11.88,1.54-11.88,16.49s.48,16.52,11.88,16.52,11.88-1.21,11.88-16.52S278.32,324.13,266.44,324.13Z" transform="translate(21.12)"/><polygon class="cls-3" points="336.11 323.14 339.42 323.14 347.09 352.69 352.75 319.25 359.92 319.25 352.13 361.98 344.41 361.98 336.11 330.03 327.81 361.98 320.1 361.98 312.31 319.25 319.47 319.25 325.13 352.69 332.81 323.14 336.11 323.14"/><path class="cls-3" d="M7.38,420.56s5-5.88,23.14-5.88c12.59,0,17-.05,17,16.1s0,20.53-31.77,20.53v10.3c30.68,0,34.16.15,34.16,22.62s.14,21.68-21.61,21.68-22.41-5.07-22.41-5.07v12.62s.4,3.19,22.12,3.19,37.13,4.88,37.13-32.42c0-24.13,0-26.72-22.63-28.86,20.19-1.6,19.56-2.29,19.36-26.94C61.63,401.36,60.67,404,31.31,404c-19.73,0-23.93,4.11-23.93,4.11Z" transform="translate(21.12)"/><path class="cls-3" d="M86.43,460.23C86.43,404,91,404,123.12,404s36.7.06,36.7,56.28-4,56.42-36.7,56.42S86.43,516.45,86.43,460.23Zm36.7-45.54c-18.82,0-21.47,0-21.47,45.55,0,18.35.38,29.34,2.11,35.91l29.42-81A64.26,64.26,0,0,0,123.13,414.69Zm19.26,9.65-29.45,81.1a64,64,0,0,0,10.19.48c19.11,0,21.46-.16,21.46-45.68C144.59,441.85,144.16,430.88,142.39,424.34Zm-38.62,71.81v0" transform="translate(21.12)"/><path class="cls-3" d="M175.92,460.23c0-56.22,4.54-56.28,36.69-56.28s36.7.06,36.7,56.28-4,56.42-36.7,56.42S175.92,516.45,175.92,460.23Zm36.7-45.54c-18.82,0-21.47,0-21.47,45.55,0,18.35.38,29.34,2.11,35.91l29.42-81A64.26,64.26,0,0,0,212.62,414.69Zm19.26,9.65-29.46,81.1a64.24,64.24,0,0,0,10.2.48c19.11,0,21.46-.16,21.46-45.68C234.08,441.85,233.65,430.88,231.88,424.34Zm-38.62,71.81,0,0" transform="translate(21.12)"/><path class="cls-3" d="M265.41,460.23C265.41,404,270,404,302.1,404s36.7.06,36.7,56.28-4,56.42-36.7,56.42S265.41,516.45,265.41,460.23Zm36.7-45.54c-18.82,0-21.47,0-21.47,45.55,0,18.35.38,29.34,2.1,35.91l29.43-81A64.26,64.26,0,0,0,302.11,414.69Zm19.26,9.65-29.46,81.1a64.24,64.24,0,0,0,10.2.48c19.11,0,21.46-.16,21.46-45.68C323.57,441.85,323.14,430.88,321.37,424.34Zm-38.63,71.81v0" transform="translate(21.12)"/></g><g id="cyan"><path class="cls-4" d="M32.74,103.14l1,.52-1,1.7-1-.51Zm2.49,1.34-1-.52-1,1.7,1,.52Zm1.51.82-1-.53-1,1.71,1,.51Zm1.51.81-1-.52-1,1.71,1,.51Zm.73-.27L40.56,107l.63-.92-1.58-1.15Zm3.25-1.3-1.58-1.14-.63.92,1.58,1.15Zm1-1.52-1.58-1.15-.62.92L42.64,104Zm.24-17.55-1-.52-1,1.7,1,.52Zm.81,16-1.59-1.15-.62.91,1.58,1.17Zm-1.18-14,1,.51,1-1.69-1-.52ZM45.35,100l-1.58-1.15-.63.93,1.58,1.15Zm1-1.52L44.8,97.3l-.63.92,1.59,1.15ZM44.64,88.27l1,.51.95-1.7-1-.52Zm2.78,8.65-1.58-1.14-.62.92,1.57,1.15Zm.67-9-1-.52-1,1.7,1,.52Zm.38,7.5-1.58-1.15-.63.92,1.58,1.15Zm.65-4.75-.47-.24,1-1.69-1-.53-1,1.7-8.09-4.25-9.52,16.07,8.66,4.5Zm.39,3.22-1.59-1.14-.62.91,1.58,1.16Zm1-1.53L49,91.2l-.63.92,1.58,1.15Zm292.08,9.19c-8.1-5.06-27.93-14.88-72.68-21.33-1.58-.23-3.18-.45-4.83-.67-15.71-2.09-20.94-1-20.94-1s-8-7.23-6.81-15,7.08-12.63,7.89-13.25,4.25-3.32-1.3-3.64-10,6-11,8.32-2.4,6.35-2.4,6.35-1.42-11-.43-16,1.72-7.58,3.15-9.05.42-3.89-2.35-1.8-4.62,7.71-4.62,7.71-8.81-9.31-10.54-14.72a28.75,28.75,0,0,1-1.6-8.76s-2.59,7.71-2,12.82a38.81,38.81,0,0,0,2.08,8.73c-.44-.42-7.49-7.12-9.1-10.64s-5.24-8.81-8.62-10.41-4.87-.37-2.65,2.71,4.68,7.64,5.23,9.86a13.92,13.92,0,0,1,.49,3.69S189.8,25,178.83,20.61,159.3,12,159.3,12a13.21,13.21,0,0,0,5.36,7.15c4.42,3.07,9.27,5.47,10.09,6.64-.48-.16-16-5.74-20.32-7.25s-6.9-2-11-3.64S131.58,8.14,131.34,8a22.62,22.62,0,0,0,4.24,7.68c2.67,2.85,7.32,7,7.67,7.33a41.1,41.1,0,0,0-17.83-2.82c-10.3.61-13.13,6.71-13.13,6.71l-.08,0c-.94.2-10.19,2.31-23,9.57l-.28.15c-29,16.1-43.64,40.47-44.53,42h0a.1.1,0,0,1,0,0h0l0,0,1.76,1,15.71,6.06L50.74,109.71l-.15.14.06.06-1,2.06-23.1,11.77-1.35.56s-1.11,23.53-7.86,31.29-11.45,11.09-14.5,12.2S.75,178.6,8.32,175.46s10.54-6.56,10.54-6.56,1,10.44-.56,15.52-3.14,9.34-3.14,9.34,9.71-2.4,12.85-5.37a23.08,23.08,0,0,0,3.78-4.06,57,57,0,0,1,4.16,11,17.85,17.85,0,0,1-.18,9.15s6.29-3.14,9.43-5.82a33.33,33.33,0,0,0,4.89-5.08s7.3,5.91,8.33,10.16a27.1,27.1,0,0,1,.73,7.66L73.66,202s4.44,13.68,4.19,21.94c8-8.38,12.94-9.74,12.94-9.74s.37,11.22,3.08,18.61a66.45,66.45,0,0,0,6.29,12.75s2-7.57,3.57-11.89a12.6,12.6,0,0,1,4.68-6.16s4.44,10.72,8.41,15.34,11.65,4.71,14.41-1.39,7.12-13.68,7.12-13.68A97.66,97.66,0,0,0,145,239.87c3.7,5.55,7.95,4.71,9.62,1.3s7.2-12.48,7.2-12.48,8.63,4.9,11.1,10.63.55,7.15.24,8.13,2,6.66,8-3.33A178,178,0,0,0,191,225.18s4.81,7.76,7.77,10.26,4.53,3.7,4.53,3.7A22.34,22.34,0,0,0,207.11,228c.37-6.65.83-15,.83-15s9.7,10,17.47,13.86,17.19.19,10.71-8.77-12.66-11.83-9.91-35.18c5.29-45.1,23.65-58,23.65-58l1.16,0h.38l.94,0h1.17c4.07.07,11.19.17,19.23,0,12.78-.19,27.91-.9,36.95-3a277.24,277.24,0,0,0,34.37-10.63s2.69-.27,5.89,4.78C350,116.19,351,106.76,342.62,101.53Z" transform="translate(21.12)"/></g><g id="magenta"><path class="cls-5" d="M32.26,96.31l1,.53-1,1.69-1-.51Zm2.49,1.34-1-.52-1,1.71,1,.51Zm1.51.82-1-.52-1,1.7,1,.52Zm1.5.82-1-.53-1,1.71,1,.52ZM38.5,99l1.58,1.15.63-.92-1.58-1.16Zm3.24-1.3-1.58-1.14-.63.92,1.59,1.15Zm1-1.52L41.2,95.05l-.62.92,1.57,1.15ZM43,78.65l-1-.53-1,1.71,1,.51Zm.81,16-1.59-1.14-.62.91L43.2,95.6Zm-1.18-14,1,.52,1-1.7-1-.51Zm2.22,12.52L43.28,92l-.62.92,1.58,1.15Zm1-1.52-1.58-1.15-.63.92,1.58,1.15ZM44.15,81.44l1,.51,1-1.69-1-.53Zm2.79,8.65L45.36,89l-.62.92L46.31,91Zm.67-9-1-.52-1,1.71,1,.51Zm.38,7.5-1.58-1.15-.63.92,1.58,1.16Zm.65-4.74-.48-.24,1-1.7-1-.52-1,1.69-8.1-4.25L29.56,94.89l8.67,4.49ZM49,87,47.44,85.9l-.63.91L48.4,88Zm1-1.52-1.58-1.15-.63.93,1.58,1.15ZM342.14,94.7c-8.1-5.06-27.94-14.87-72.68-21.32-1.58-.23-3.18-.45-4.83-.67-15.71-2.1-20.95-1-20.95-1s-8-7.24-6.8-15S244,44,244.76,43.41s4.26-3.32-1.3-3.63-10,6-11,8.31-2.4,6.35-2.4,6.35-1.42-11-.43-15.95,1.72-7.58,3.14-9.06.43-3.89-2.34-1.79-4.62,7.71-4.62,7.71S217,26,215.31,20.62a28.29,28.29,0,0,1-1.6-8.75s-2.59,7.7-2,12.82a39.4,39.4,0,0,0,2.07,8.72c-.44-.42-7.48-7.11-9.1-10.63s-5.23-8.82-8.62-10.41-4.87-.38-2.65,2.7,4.68,7.65,5.24,9.87a13.87,13.87,0,0,1,.49,3.68s-9.85-10.47-20.82-14.84-19.53-8.57-19.53-8.57a13.22,13.22,0,0,0,5.36,7.16c4.42,3.07,9.27,5.47,10.09,6.64-.49-.17-16-5.74-20.32-7.26s-6.9-2-11-3.63-11.83-6.8-12.07-7a22.82,22.82,0,0,0,4.25,7.69c2.67,2.85,7.32,7,7.67,7.32a41.31,41.31,0,0,0-17.83-2.82c-10.3.61-13.13,6.72-13.13,6.72l-.08,0c-.94.2-10.19,2.3-23,9.56l-.28.16c-29,16.09-43.65,40.47-44.54,42v0l0,0h0l0,0,1.76,1L61.35,79,50.26,102.88l-.15.15.06,0-1,2.06-23.1,11.78-1.35.55S23.65,141,16.9,148.77,5.44,159.86,2.4,161s-2.13,10.81,5.44,7.66,10.54-6.55,10.54-6.55,1,10.44-.56,15.52-3.14,9.33-3.14,9.33,9.71-2.4,12.85-5.36a23.37,23.37,0,0,0,3.78-4.07,57.34,57.34,0,0,1,4.16,11,17.88,17.88,0,0,1-.18,9.16s6.29-3.15,9.43-5.83a33.33,33.33,0,0,0,4.89-5.08s7.3,5.91,8.33,10.16a27.17,27.17,0,0,1,.73,7.67l14.51-9.43s4.44,13.68,4.18,21.94c8-8.37,13-9.74,13-9.74s.37,11.22,3.08,18.62a66.87,66.87,0,0,0,6.28,12.74s2-7.57,3.58-11.89a12.54,12.54,0,0,1,4.68-6.15s4.44,10.71,8.41,15.33,11.64,4.71,14.41-1.38,7.12-13.68,7.12-13.68a96.16,96.16,0,0,0,6.65,12.11c3.7,5.55,7.95,4.71,9.62,1.29s7.2-12.48,7.2-12.48,8.63,4.9,11.09,10.63.56,7.15.24,8.14,2,6.65,8-3.33a177.57,177.57,0,0,0,9.88-19s4.81,7.76,7.76,10.27,4.54,3.69,4.54,3.69a22.28,22.28,0,0,0,3.79-11.18c.37-6.65.83-15,.83-15s9.7,10,17.47,13.87,17.18.19,10.71-8.78-12.66-11.82-9.92-35.18c5.3-45.1,23.66-58,23.66-58l1.15,0h.39l.93,0H253c4.07.08,11.18.17,19.23,0,12.77-.18,27.91-.9,36.95-3a279.22,279.22,0,0,0,34.37-10.63s2.68-.27,5.89,4.77C349.47,109.36,350.52,99.94,342.14,94.7Z" transform="translate(21.12)"/></g><g id="crow"><path class="cls-6" d="M244.18,46.48c-.8.62-6.66,5.5-7.89,13.26s6.81,15,6.81,15c-.84,1.47-6.3,9-6.3,9S195.54,32.28,133.88,37.84C73.17,43.31,44.06,74,43.17,75A130.91,130.91,0,0,1,56,58.34c27.62-29.69,55.12-35.22,55.12-35.22S114,17,124.26,16.4a41.19,41.19,0,0,1,17.85,2.82c-.35-.32-5-4.47-7.68-7.33a22.72,22.72,0,0,1-4.24-7.69c.24.16,8,5.32,12.07,7s6.67,2.1,11,3.64,19.85,7.09,20.33,7.26c-.82-1.17-5.67-3.57-10.09-6.64a13.24,13.24,0,0,1-5.37-7.16s8.58,4.19,19.55,8.57,20.84,14.85,20.84,14.85a14.29,14.29,0,0,0-.5-3.69c-.55-2.22-3-6.79-5.24-9.87s-.74-4.31,2.66-2.7,7,6.78,8.62,10.41,8.67,10.22,9.11,10.64a38.46,38.46,0,0,1-2.08-8.73c-.61-5.11,2-12.83,2-12.83a28.66,28.66,0,0,0,1.61,8.77c1.73,5.41,10.54,14.73,10.54,14.73s1.85-5.62,4.63-7.71,3.76.31,2.34,1.79-2.16,4.07-3.14,9.07.43,16,.43,16,1.48-4.07,2.4-6.35,5.43-8.63,11-8.32S245,45.86,244.18,46.48Z" transform="translate(21.12)"/><path class="cls-7" d="M270.94,80.57c-2.36.78-10.12.5-10.12.5s2.9,1.53,1.57,2.27-7.78,1.34-7.78,1.34-.23.65-3.05,2.27-8.78,2.4-8.78,2.4A44.46,44.46,0,0,1,237,92.5c-2.31.92-8.22,2.65-8.22,2.65a.86.86,0,0,0,.07-.1,130.43,130.43,0,0,0,7.91-11.34s5.46-7.49,6.3-9c0,0,5.24-1,21,1l4.83.67S273.3,79.78,270.94,80.57Z" transform="translate(21.12)"/><path class="cls-8" d="M349,112.48c-3.2-5-5.89-4.78-5.89-4.78s-3.38-7.27-45.31-7.27-80.18,4.32-80.18,4.32c3.18-.43,7.49-4.9,11.24-9.6,0,0,5.91-1.73,8.22-2.65a44.46,44.46,0,0,0,5.74-3.15s6-.78,8.78-2.4,3.05-2.27,3.05-2.27,6.44-.6,7.78-1.34-1.57-2.27-1.57-2.27,7.76.28,10.12-.5-2-4.1-2-4.1c44.77,6.46,64.63,16.28,72.73,21.34C350,103.05,349,112.48,349,112.48Z" transform="translate(21.12)"/><path class="cls-9" d="M343.07,107.7a278.38,278.38,0,0,1-34.4,10.64c-9,2.1-24.19,2.81-37,3-8.05.13-15.17,0-19.25,0,7.21.1,22.42,0,20.62-2.94-.32-.51.07-.35-3.52-1.19s-2.75-2.58-2.75-2.58a19.8,19.8,0,0,1-3.59-.79c-2.58-.73-1.8-2.16-1.8-2.16a32.11,32.11,0,0,1-5.17-.56c-4.54-.64-2.59-1.85-3.57-2.21s-7.63-.23-7.63-.23-.42-1.07-3.18-1.21-22.31-2.45-24.14-2.66l-.14,0s38.26-4.32,80.18-4.32S343.07,107.7,343.07,107.7Z" transform="translate(21.12)"/><path class="cls-10" d="M225.13,179.23c-2.75,23.37,3.46,26.23,9.92,35.21s-3,12.67-10.72,8.78-17.48-13.88-17.48-13.88-.46,8.34-.83,15a22.29,22.29,0,0,1-3.79,11.19s-1.58-1.2-4.54-3.7-7.77-10.27-7.77-10.27a178.41,178.41,0,0,1-9.89,19c-6,10-8.3,4.32-8,3.34s2.22-2.41-.24-8.15-11.1-10.64-11.1-10.64-5.55,9.07-7.21,12.5-5.93,4.25-9.62-1.3a97.47,97.47,0,0,1-6.66-12.12s-4.35,7.59-7.13,13.69-10.45,6-14.42,1.38-8.42-15.34-8.42-15.34a12.54,12.54,0,0,0-4.68,6.16C101,234.35,99,241.93,99,241.93a67.44,67.44,0,0,1-6.29-12.76c-2.71-7.4-3.08-18.62-3.08-18.62s-4.93,1.36-13,9.75c.25-8.27-4.19-22-4.19-22L58,207.77a27.17,27.17,0,0,0-.73-7.67c-1-4.26-8.34-10.17-8.34-10.17A33.33,33.33,0,0,1,44,195c-3.15,2.69-9.44,5.83-9.44,5.83a17.88,17.88,0,0,0,.18-9.16,57,57,0,0,0-4.16-11,23.7,23.7,0,0,1-3.78,4.06c-3.15,3-12.86,5.37-12.86,5.37s1.57-4.26,3.14-9.34.56-15.53.56-15.53-3,3.41-10.55,6.56-8.51-6.56-5.45-7.67,7.77-4.45,14.52-12.22S24,120.6,24,120.6l1.35-.56,23.12-11.78,12.15-26.2L44.91,76l-1.76-1,0,0c.89-1,30-31.64,90.71-37.11C195.54,32.28,236.8,83.71,236.8,83.71a130.43,130.43,0,0,1-7.91,11.34c-3.75,4.74-8.11,9.27-11.31,9.7,16.6,3,31.22,16.47,31.22,16.47S230.43,134.1,225.13,179.23Z" transform="translate(21.12)"/><g class="cls-11"><rect class="cls-12" x="-0.61" y="41.14" width="85.8" height="117.09" transform="translate(66.54 -8.55) rotate(24.65)"/><rect class="cls-13" x="38.14" y="72.14" width="0.95" height="0.95" transform="translate(54.92 -9.49) rotate(24.65)"/><rect class="cls-13" x="40.25" y="73.11" width="0.95" height="0.95" transform="translate(55.51 -10.28) rotate(24.65)"/><rect class="cls-13" x="42.35" y="74.08" width="0.95" height="0.95" transform="translate(56.11 -11.07) rotate(24.65)"/><rect class="cls-13" x="44.46" y="75.04" width="0.95" height="0.95" transform="translate(56.7 -11.86) rotate(24.65)"/><rect class="cls-13" x="46.57" y="76.01" width="0.95" height="0.95" transform="translate(57.3 -12.65) rotate(24.65)"/><rect class="cls-13" x="48.67" y="76.98" width="0.95" height="0.95" transform="translate(57.89 -13.44) rotate(24.65)"/><rect class="cls-13" x="50.78" y="77.94" width="0.95" height="0.95" transform="translate(58.49 -14.23) rotate(24.65)"/><rect class="cls-13" x="52.88" y="78.91" width="0.95" height="0.95" transform="translate(59.08 -15.02) rotate(24.65)"/><rect class="cls-13" x="54.99" y="79.88" width="0.95" height="0.95" transform="translate(59.68 -15.81) rotate(24.65)"/><rect class="cls-13" x="57.1" y="80.84" width="0.95" height="0.95" transform="translate(60.27 -16.6) rotate(24.65)"/><rect class="cls-13" x="59.2" y="81.81" width="0.95" height="0.95" transform="translate(60.87 -17.39) rotate(24.65)"/><rect class="cls-13" x="61.31" y="82.77" width="0.95" height="0.95" transform="translate(61.46 -18.18) rotate(24.65)"/><rect class="cls-13" x="63.42" y="83.74" width="0.95" height="0.95" transform="translate(62.06 -18.97) rotate(24.65)"/><rect class="cls-13" x="65.52" y="84.71" width="0.95" height="0.95" transform="translate(62.65 -19.76) rotate(24.65)"/><rect class="cls-13" x="67.63" y="85.67" width="0.95" height="0.95" transform="translate(63.25 -20.55) rotate(24.65)"/><rect class="cls-13" x="37.17" y="74.25" width="0.95" height="0.95" transform="translate(55.71 -8.89) rotate(24.65)"/><rect class="cls-13" x="39.28" y="75.22" width="0.95" height="0.95" transform="translate(56.3 -9.68) rotate(24.65)"/><rect class="cls-13" x="41.39" y="76.18" width="0.95" height="0.95" transform="translate(56.9 -10.47) rotate(24.65)"/><rect class="cls-13" x="43.49" y="77.15" width="0.95" height="0.95" transform="translate(57.49 -11.26) rotate(24.65)"/><rect class="cls-13" x="45.6" y="78.12" width="0.95" height="0.95" transform="translate(58.09 -12.05) rotate(24.65)"/><rect class="cls-13" x="47.71" y="79.08" width="0.95" height="0.95" transform="translate(58.68 -12.84) rotate(24.65)"/><rect class="cls-13" x="49.81" y="80.05" width="0.95" height="0.95" transform="translate(59.28 -13.63) rotate(24.65)"/><rect class="cls-13" x="51.92" y="81.02" width="0.95" height="0.95" transform="translate(59.87 -14.42) rotate(24.65)"/><rect class="cls-13" x="54.02" y="81.98" width="0.95" height="0.95" transform="translate(60.47 -15.21) rotate(24.65)"/><rect class="cls-13" x="56.13" y="82.95" width="0.95" height="0.95" transform="translate(61.06 -16) rotate(24.65)"/><rect class="cls-13" x="58.24" y="83.91" width="0.95" height="0.95" transform="translate(61.66 -16.8) rotate(24.65)"/><rect class="cls-13" x="60.34" y="84.88" width="0.95" height="0.95" transform="translate(62.25 -17.59) rotate(24.65)"/><rect class="cls-13" x="62.45" y="85.85" width="0.95" height="0.95" transform="translate(62.85 -18.38) rotate(24.65)"/><rect class="cls-13" x="64.56" y="86.81" width="0.95" height="0.95" transform="translate(63.44 -19.17) rotate(24.65)"/><rect class="cls-13" x="66.66" y="87.78" width="0.95" height="0.95" transform="translate(64.04 -19.96) rotate(24.65)"/><rect class="cls-13" x="36.21" y="76.36" width="0.95" height="0.95" transform="translate(56.5 -8.3) rotate(24.65)"/><rect class="cls-13" x="38.31" y="77.32" width="0.95" height="0.95" transform="translate(57.09 -9.09) rotate(24.65)"/><rect class="cls-13" x="40.42" y="78.29" width="0.95" height="0.95" transform="translate(57.69 -9.88) rotate(24.65)"/><rect class="cls-13" x="42.53" y="79.26" width="0.95" height="0.95" transform="translate(58.28 -10.67) rotate(24.65)"/><rect class="cls-13" x="44.63" y="80.22" width="0.95" height="0.95" transform="translate(58.88 -11.46) rotate(24.65)"/><rect class="cls-13" x="46.74" y="81.19" width="0.95" height="0.95" transform="translate(59.47 -12.25) rotate(24.65)"/><rect class="cls-13" x="48.85" y="82.16" width="0.95" height="0.95" transform="translate(60.07 -13.04) rotate(24.65)"/><rect class="cls-13" x="50.95" y="83.12" width="0.95" height="0.95" transform="translate(60.66 -13.83) rotate(24.65)"/><rect class="cls-13" x="53.06" y="84.09" width="0.95" height="0.95" transform="translate(61.26 -14.62) rotate(24.65)"/><rect class="cls-13" x="55.16" y="85.05" width="0.95" height="0.95" transform="translate(61.85 -15.41) rotate(24.65)"/><rect class="cls-13" x="57.27" y="86.02" width="0.95" height="0.95" transform="translate(62.45 -16.2) rotate(24.65)"/><rect class="cls-13" x="59.38" y="86.99" width="0.95" height="0.95" transform="translate(63.04 -16.99) rotate(24.65)"/><rect class="cls-13" x="61.48" y="87.95" width="0.95" height="0.95" transform="translate(63.64 -17.78) rotate(24.65)"/><rect class="cls-13" x="63.59" y="88.92" width="0.95" height="0.95" transform="translate(64.23 -18.57) rotate(24.65)"/><rect class="cls-13" x="65.7" y="89.89" width="0.95" height="0.95" transform="translate(64.83 -19.36) rotate(24.65)"/><rect class="cls-13" x="35.24" y="78.46" width="0.95" height="0.95" transform="translate(57.29 -7.7) rotate(24.65)"/><rect class="cls-13" x="37.35" y="79.43" width="0.95" height="0.95" transform="translate(57.88 -8.49) rotate(24.65)"/><rect class="cls-13" x="39.45" y="80.4" width="0.95" height="0.95" transform="translate(58.48 -9.28) rotate(24.65)"/><rect class="cls-13" x="41.56" y="81.36" width="0.95" height="0.95" transform="translate(59.07 -10.07) rotate(24.65)"/><rect class="cls-13" x="43.67" y="82.33" width="0.95" height="0.95" transform="translate(59.67 -10.86) rotate(24.65)"/><rect class="cls-13" x="45.77" y="83.3" width="0.95" height="0.95" transform="translate(60.26 -11.65) rotate(24.65)"/><rect class="cls-13" x="47.88" y="84.26" width="0.95" height="0.95" transform="translate(60.86 -12.44) rotate(24.65)"/><rect class="cls-13" x="49.99" y="85.23" width="0.95" height="0.95" transform="translate(61.45 -13.23) rotate(24.65)"/><rect class="cls-13" x="52.09" y="86.19" width="0.95" height="0.95" transform="translate(62.05 -14.02) rotate(24.65)"/><rect class="cls-13" x="54.2" y="87.16" width="0.95" height="0.95" transform="translate(62.64 -14.82) rotate(24.65)"/><rect class="cls-13" x="56.3" y="88.13" width="0.95" height="0.95" transform="translate(63.24 -15.61) rotate(24.65)"/><rect class="cls-13" x="58.41" y="89.09" width="0.95" height="0.95" transform="translate(63.83 -16.4) rotate(24.65)"/><rect class="cls-13" x="60.52" y="90.06" width="0.95" height="0.95" transform="translate(64.43 -17.19) rotate(24.65)"/><rect class="cls-13" x="62.62" y="91.03" width="0.95" height="0.95" transform="translate(65.02 -17.98) rotate(24.65)"/><rect class="cls-13" x="64.73" y="91.99" width="0.95" height="0.95" transform="translate(65.62 -18.77) rotate(24.65)"/><rect class="cls-13" x="34.27" y="80.57" width="0.95" height="0.95" transform="translate(58.08 -7.11) rotate(24.65)"/><rect class="cls-13" x="36.38" y="81.54" width="0.95" height="0.95" transform="translate(58.67 -7.9) rotate(24.65)"/><rect class="cls-13" x="38.49" y="82.5" width="0.95" height="0.95" transform="translate(59.27 -8.69) rotate(24.65)"/><rect class="cls-13" x="40.59" y="83.47" width="0.95" height="0.95" transform="translate(59.86 -9.48) rotate(24.65)"/><rect class="cls-13" x="42.7" y="84.44" width="0.95" height="0.95" transform="translate(60.46 -10.27) rotate(24.65)"/><rect class="cls-13" x="44.81" y="85.4" width="0.95" height="0.95" transform="translate(61.05 -11.06) rotate(24.65)"/><rect class="cls-13" x="46.91" y="86.37" width="0.95" height="0.95" transform="translate(61.65 -11.85) rotate(24.65)"/><rect class="cls-13" x="49.02" y="87.33" width="0.95" height="0.95" transform="translate(62.24 -12.64) rotate(24.65)"/><rect class="cls-13" x="51.13" y="88.3" width="0.95" height="0.95" transform="translate(62.84 -13.43) rotate(24.65)"/><rect class="cls-13" x="53.23" y="89.27" width="0.95" height="0.95" transform="translate(63.43 -14.22) rotate(24.65)"/><rect class="cls-13" x="55.34" y="90.23" width="0.95" height="0.95" transform="translate(64.03 -15.01) rotate(24.65)"/><rect class="cls-13" x="57.44" y="91.2" width="0.95" height="0.95" transform="translate(64.62 -15.8) rotate(24.65)"/><rect class="cls-13" x="59.55" y="92.17" width="0.95" height="0.95" transform="translate(65.22 -16.59) rotate(24.65)"/><rect class="cls-13" x="61.66" y="93.13" width="0.95" height="0.95" transform="translate(65.81 -17.38) rotate(24.65)"/><rect class="cls-13" x="63.76" y="94.1" width="0.95" height="0.95" transform="translate(66.41 -18.17) rotate(24.65)"/><rect class="cls-13" x="33.31" y="82.68" width="0.95" height="0.95" transform="translate(58.87 -6.51) rotate(24.65)"/><rect class="cls-13" x="35.41" y="83.64" width="0.95" height="0.95" transform="translate(59.46 -7.3) rotate(24.65)"/><rect class="cls-13" x="37.52" y="84.61" width="0.95" height="0.95" transform="translate(60.06 -8.09) rotate(24.65)"/><rect class="cls-13" x="39.63" y="85.58" width="0.95" height="0.95" transform="translate(60.65 -8.88) rotate(24.65)"/><rect class="cls-13" x="41.73" y="86.54" width="0.95" height="0.95" transform="translate(61.25 -9.67) rotate(24.65)"/><rect class="cls-13" x="43.84" y="87.51" width="0.95" height="0.95" transform="translate(61.84 -10.46) rotate(24.65)"/><rect class="cls-13" x="45.95" y="88.47" width="0.95" height="0.95" transform="translate(62.44 -11.25) rotate(24.65)"/><rect class="cls-13" x="48.05" y="89.44" width="0.95" height="0.95" transform="translate(63.03 -12.04) rotate(24.65)"/><rect class="cls-13" x="50.16" y="90.41" width="0.95" height="0.95" transform="translate(63.63 -12.84) rotate(24.65)"/><rect class="cls-13" x="52.27" y="91.37" width="0.95" height="0.95" transform="translate(64.22 -13.63) rotate(24.65)"/><rect class="cls-13" x="54.37" y="92.34" width="0.95" height="0.95" transform="translate(64.82 -14.42) rotate(24.65)"/><rect class="cls-13" x="56.48" y="93.31" width="0.95" height="0.95" transform="translate(65.41 -15.21) rotate(24.65)"/><rect class="cls-13" x="58.58" y="94.27" width="0.95" height="0.95" transform="translate(66.01 -16) rotate(24.65)"/><rect class="cls-13" x="60.69" y="95.24" width="0.95" height="0.95" transform="translate(66.6 -16.79) rotate(24.65)"/><rect class="cls-13" x="62.8" y="96.21" width="0.95" height="0.95" transform="translate(67.2 -17.58) rotate(24.65)"/><rect class="cls-13" x="32.34" y="84.78" width="0.95" height="0.95" transform="translate(59.66 -5.92) rotate(24.65)"/><rect class="cls-13" x="34.45" y="85.75" width="0.95" height="0.95" transform="translate(60.26 -6.71) rotate(24.65)"/><rect class="cls-13" x="36.55" y="86.72" width="0.95" height="0.95" transform="translate(60.85 -7.5) rotate(24.65)"/><rect class="cls-13" x="38.66" y="87.68" width="0.95" height="0.95" transform="translate(61.44 -8.29) rotate(24.65)"/><rect class="cls-13" x="40.77" y="88.65" width="0.95" height="0.95" transform="translate(62.04 -9.08) rotate(24.65)"/><rect class="cls-13" x="42.87" y="89.61" width="0.95" height="0.95" transform="translate(62.63 -9.87) rotate(24.65)"/><rect class="cls-13" x="44.98" y="90.58" width="0.95" height="0.95" transform="translate(63.23 -10.66) rotate(24.65)"/><rect class="cls-13" x="47.09" y="91.55" width="0.95" height="0.95" transform="translate(63.82 -11.45) rotate(24.65)"/><rect class="cls-13" x="49.19" y="92.51" width="0.95" height="0.95" transform="translate(64.42 -12.24) rotate(24.65)"/><rect class="cls-13" x="51.3" y="93.48" width="0.95" height="0.95" transform="translate(65.01 -13.03) rotate(24.65)"/><rect class="cls-13" x="53.41" y="94.45" width="0.95" height="0.95" transform="translate(65.61 -13.82) rotate(24.65)"/><rect class="cls-13" x="55.51" y="95.41" width="0.95" height="0.95" transform="translate(66.2 -14.61) rotate(24.65)"/><rect class="cls-13" x="57.62" y="96.38" width="0.95" height="0.95" transform="translate(66.8 -15.4) rotate(24.65)"/><rect class="cls-13" x="59.72" y="97.35" width="0.95" height="0.95" transform="translate(67.39 -16.19) rotate(24.65)"/><rect class="cls-13" x="61.83" y="98.31" width="0.95" height="0.95" transform="translate(67.99 -16.98) rotate(24.65)"/><rect class="cls-13" x="31.38" y="86.89" width="0.95" height="0.95" transform="translate(60.45 -5.32) rotate(24.65)"/><rect class="cls-13" x="33.48" y="87.86" width="0.95" height="0.95" transform="translate(61.05 -6.11) rotate(24.65)"/><rect class="cls-13" x="35.59" y="88.82" width="0.95" height="0.95" transform="translate(61.64 -6.9) rotate(24.65)"/><rect class="cls-13" x="37.69" y="89.79" width="0.95" height="0.95" transform="translate(62.23 -7.69) rotate(24.65)"/><rect class="cls-13" x="39.8" y="90.75" width="0.95" height="0.95" transform="translate(62.83 -8.48) rotate(24.65)"/><rect class="cls-13" x="41.91" y="91.72" width="0.95" height="0.95" transform="translate(63.42 -9.27) rotate(24.65)"/><rect class="cls-13" x="44.01" y="92.69" width="0.95" height="0.95" transform="translate(64.02 -10.06) rotate(24.65)"/><rect class="cls-13" x="46.12" y="93.65" width="0.95" height="0.95" transform="translate(64.61 -10.86) rotate(24.65)"/><rect class="cls-13" x="48.23" y="94.62" width="0.95" height="0.95" transform="translate(65.21 -11.65) rotate(24.65)"/><rect class="cls-13" x="50.33" y="95.59" width="0.95" height="0.95" transform="translate(65.8 -12.44) rotate(24.65)"/><rect class="cls-13" x="52.44" y="96.55" width="0.95" height="0.95" transform="translate(66.4 -13.23) rotate(24.65)"/><rect class="cls-13" x="54.55" y="97.52" width="0.95" height="0.95" transform="translate(66.99 -14.02) rotate(24.65)"/><rect class="cls-13" x="56.65" y="98.49" width="0.95" height="0.95" transform="translate(67.59 -14.81) rotate(24.65)"/><rect class="cls-13" x="58.76" y="99.45" width="0.95" height="0.95" transform="translate(68.18 -15.6) rotate(24.65)"/><rect class="cls-13" x="60.86" y="100.42" width="0.95" height="0.95" transform="translate(68.78 -16.39) rotate(24.65)"/><rect class="cls-13" x="30.41" y="89" width="0.95" height="0.95" transform="translate(61.24 -4.73) rotate(24.65)"/><rect class="cls-13" x="32.52" y="89.96" width="0.95" height="0.95" transform="translate(61.84 -5.52) rotate(24.65)"/><rect class="cls-13" x="34.62" y="90.93" width="0.95" height="0.95" transform="translate(62.43 -6.31) rotate(24.65)"/><rect class="cls-13" x="36.73" y="91.89" width="0.95" height="0.95" transform="translate(63.03 -7.1) rotate(24.65)"/><rect class="cls-13" x="38.83" y="92.86" width="0.95" height="0.95" transform="translate(63.62 -7.89) rotate(24.65)"/><rect class="cls-13" x="40.94" y="93.83" width="0.95" height="0.95" transform="translate(64.21 -8.68) rotate(24.65)"/><rect class="cls-13" x="43.05" y="94.79" width="0.95" height="0.95" transform="translate(64.81 -9.47) rotate(24.65)"/><rect class="cls-13" x="45.15" y="95.76" width="0.95" height="0.95" transform="translate(65.4 -10.26) rotate(24.65)"/><rect class="cls-13" x="47.26" y="96.73" width="0.95" height="0.95" transform="translate(66 -11.05) rotate(24.65)"/><rect class="cls-13" x="49.37" y="97.69" width="0.95" height="0.95" transform="translate(66.59 -11.84) rotate(24.65)"/><rect class="cls-13" x="51.47" y="98.66" width="0.95" height="0.95" transform="translate(67.19 -12.63) rotate(24.65)"/><rect class="cls-13" x="53.58" y="99.63" width="0.95" height="0.95" transform="translate(67.78 -13.42) rotate(24.65)"/><rect class="cls-13" x="55.69" y="100.59" width="0.95" height="0.95" transform="translate(68.38 -14.21) rotate(24.65)"/><rect class="cls-13" x="57.79" y="101.56" width="0.95" height="0.95" transform="translate(68.97 -15) rotate(24.65)"/><rect class="cls-13" x="59.9" y="102.52" width="0.95" height="0.95" transform="translate(69.57 -15.79) rotate(24.65)"/><rect class="cls-13" x="29.44" y="91.1" width="0.95" height="0.95" transform="translate(62.03 -4.13) rotate(24.65)"/><rect class="cls-13" x="31.55" y="92.07" width="0.95" height="0.95" transform="translate(62.63 -4.92) rotate(24.65)"/><rect class="cls-13" x="33.66" y="93.03" width="0.95" height="0.95" transform="translate(63.22 -5.71) rotate(24.65)"/><rect class="cls-13" x="35.76" y="94" width="0.95" height="0.95" transform="translate(63.82 -6.5) rotate(24.65)"/><rect class="cls-13" x="37.87" y="94.97" width="0.95" height="0.95" transform="translate(64.41 -7.29) rotate(24.65)"/><rect class="cls-13" x="39.97" y="95.93" width="0.95" height="0.95" transform="translate(65.01 -8.08) rotate(24.65)"/><rect class="cls-13" x="42.08" y="96.9" width="0.95" height="0.95" transform="translate(65.6 -8.88) rotate(24.65)"/><rect class="cls-13" x="44.19" y="97.87" width="0.95" height="0.95" transform="translate(66.19 -9.67) rotate(24.65)"/><rect class="cls-13" x="46.29" y="98.83" width="0.95" height="0.95" transform="translate(66.79 -10.46) rotate(24.65)"/><rect class="cls-13" x="48.4" y="99.8" width="0.95" height="0.95" transform="translate(67.38 -11.25) rotate(24.65)"/><rect class="cls-13" x="50.51" y="100.77" width="0.95" height="0.95" transform="translate(67.98 -12.04) rotate(24.65)"/><rect class="cls-13" x="52.61" y="101.73" width="0.95" height="0.95" transform="translate(68.57 -12.83) rotate(24.65)"/><rect class="cls-13" x="54.72" y="102.7" width="0.95" height="0.95" transform="translate(69.17 -13.62) rotate(24.65)"/><rect class="cls-13" x="56.82" y="103.66" width="0.95" height="0.95" transform="translate(69.76 -14.41) rotate(24.65)"/><rect class="cls-13" x="58.93" y="104.63" width="0.95" height="0.95" transform="translate(70.36 -15.2) rotate(24.65)"/><rect class="cls-13" x="28.48" y="93.21" width="0.95" height="0.95" transform="translate(62.82 -3.54) rotate(24.65)"/><rect class="cls-13" x="30.58" y="94.17" width="0.95" height="0.95" transform="translate(63.42 -4.33) rotate(24.65)"/><rect class="cls-13" x="32.69" y="95.14" width="0.95" height="0.95" transform="translate(64.01 -5.12) rotate(24.65)"/><rect class="cls-13" x="34.8" y="96.11" width="0.95" height="0.95" transform="translate(64.61 -5.91) rotate(24.65)"/><rect class="cls-13" x="36.9" y="97.07" width="0.95" height="0.95" transform="translate(65.2 -6.7) rotate(24.65)"/><rect class="cls-13" x="39.01" y="98.04" width="0.95" height="0.95" transform="translate(65.8 -7.49) rotate(24.65)"/><rect class="cls-13" x="41.11" y="99.01" width="0.95" height="0.95" transform="translate(66.39 -8.28) rotate(24.65)"/><rect class="cls-13" x="43.22" y="99.97" width="0.95" height="0.95" transform="translate(66.99 -9.07) rotate(24.65)"/><rect class="cls-13" x="45.33" y="100.94" width="0.95" height="0.95" transform="translate(67.58 -9.86) rotate(24.65)"/><rect class="cls-13" x="47.43" y="101.91" width="0.95" height="0.95" transform="translate(68.17 -10.65) rotate(24.65)"/><rect class="cls-13" x="49.54" y="102.87" width="0.95" height="0.95" transform="translate(68.77 -11.44) rotate(24.65)"/><rect class="cls-13" x="51.65" y="103.84" width="0.95" height="0.95" transform="translate(69.36 -12.23) rotate(24.65)"/><rect class="cls-13" x="53.75" y="104.8" width="0.95" height="0.95" transform="translate(69.96 -13.02) rotate(24.65)"/><rect class="cls-13" x="55.86" y="105.77" width="0.95" height="0.95" transform="translate(70.55 -13.81) rotate(24.65)"/><rect class="cls-13" x="57.96" y="106.74" width="0.95" height="0.95" transform="translate(71.15 -14.6) rotate(24.65)"/><rect class="cls-13" x="27.51" y="95.31" width="0.95" height="0.95" transform="translate(63.61 -2.94) rotate(24.65)"/><rect class="cls-13" x="29.62" y="96.28" width="0.95" height="0.95" transform="translate(64.21 -3.73) rotate(24.65)"/><rect class="cls-13" x="31.72" y="97.25" width="0.95" height="0.95" transform="translate(64.8 -4.52) rotate(24.65)"/><rect class="cls-13" x="33.83" y="98.21" width="0.95" height="0.95" transform="translate(65.4 -5.31) rotate(24.65)"/><rect class="cls-13" x="35.94" y="99.18" width="0.95" height="0.95" transform="translate(65.99 -6.1) rotate(24.65)"/><rect class="cls-13" x="38.04" y="100.15" width="0.95" height="0.95" transform="translate(66.59 -6.9) rotate(24.65)"/><rect class="cls-13" x="40.15" y="101.11" width="0.95" height="0.95" transform="translate(67.18 -7.69) rotate(24.65)"/><rect class="cls-13" x="42.25" y="102.08" width="0.95" height="0.95" transform="translate(67.78 -8.48) rotate(24.65)"/><rect class="cls-13" x="44.36" y="103.05" width="0.95" height="0.95" transform="translate(68.37 -9.27) rotate(24.65)"/><rect class="cls-13" x="46.47" y="104.01" width="0.95" height="0.95" transform="translate(68.97 -10.06) rotate(24.65)"/><rect class="cls-13" x="48.57" y="104.98" width="0.95" height="0.95" transform="translate(69.56 -10.85) rotate(24.65)"/><rect class="cls-13" x="50.68" y="105.94" width="0.95" height="0.95" transform="translate(70.15 -11.64) rotate(24.65)"/><rect class="cls-13" x="52.79" y="106.91" width="0.95" height="0.95" transform="translate(70.75 -12.43) rotate(24.65)"/><rect class="cls-13" x="54.89" y="107.88" width="0.95" height="0.95" transform="translate(71.34 -13.22) rotate(24.65)"/><rect class="cls-13" x="57" y="108.84" width="0.95" height="0.95" transform="translate(71.94 -14.01) rotate(24.65)"/><rect class="cls-13" x="26.54" y="97.42" width="0.95" height="0.95" transform="translate(64.4 -2.35) rotate(24.65)"/><rect class="cls-13" x="28.65" y="98.39" width="0.95" height="0.95" transform="translate(65 -3.14) rotate(24.65)"/><rect class="cls-13" x="30.76" y="99.35" width="0.95" height="0.95" transform="translate(65.59 -3.93) rotate(24.65)"/><rect class="cls-13" x="32.86" y="100.32" width="0.95" height="0.95" transform="translate(66.19 -4.72) rotate(24.65)"/><rect class="cls-13" x="34.97" y="101.29" width="0.95" height="0.95" transform="translate(66.78 -5.51) rotate(24.65)"/><rect class="cls-13" x="37.08" y="102.25" width="0.95" height="0.95" transform="translate(67.38 -6.3) rotate(24.65)"/><rect class="cls-13" x="39.18" y="103.22" width="0.95" height="0.95" transform="translate(67.97 -7.09) rotate(24.65)"/><rect class="cls-13" x="41.29" y="104.19" width="0.95" height="0.95" transform="translate(68.57 -7.88) rotate(24.65)"/><rect class="cls-13" x="43.39" y="105.15" width="0.95" height="0.95" transform="translate(69.16 -8.67) rotate(24.65)"/><rect class="cls-13" x="45.5" y="106.12" width="0.95" height="0.95" transform="translate(69.76 -9.46) rotate(24.65)"/><rect class="cls-13" x="47.61" y="107.08" width="0.95" height="0.95" transform="translate(70.35 -10.25) rotate(24.65)"/><rect class="cls-13" x="49.71" y="108.05" width="0.95" height="0.95" transform="translate(70.95 -11.04) rotate(24.65)"/><rect class="cls-13" x="51.82" y="109.02" width="0.95" height="0.95" transform="translate(71.54 -11.83) rotate(24.65)"/><rect class="cls-13" x="53.93" y="109.98" width="0.95" height="0.95" transform="translate(72.13 -12.62) rotate(24.65)"/><rect class="cls-13" x="56.03" y="110.95" width="0.95" height="0.95" transform="translate(72.73 -13.41) rotate(24.65)"/><rect class="cls-13" x="25.58" y="99.53" width="0.95" height="0.95" transform="translate(65.19 -1.75) rotate(24.65)"/><rect class="cls-13" x="27.68" y="100.49" width="0.95" height="0.95" transform="translate(65.79 -2.54) rotate(24.65)"/><rect class="cls-13" x="29.79" y="101.46" width="0.95" height="0.95" transform="translate(66.38 -3.33) rotate(24.65)"/><rect class="cls-13" x="31.9" y="102.43" width="0.95" height="0.95" transform="translate(66.98 -4.12) rotate(24.65)"/><rect class="cls-13" x="34" y="103.39" width="0.95" height="0.95" transform="translate(67.57 -4.92) rotate(24.65)"/><rect class="cls-13" x="36.11" y="104.36" width="0.95" height="0.95" transform="translate(68.17 -5.71) rotate(24.65)"/><rect class="cls-13" x="38.22" y="105.32" width="0.95" height="0.95" transform="translate(68.76 -6.5) rotate(24.65)"/><rect class="cls-13" x="40.32" y="106.29" width="0.95" height="0.95" transform="translate(69.36 -7.29) rotate(24.65)"/><rect class="cls-13" x="42.43" y="107.26" width="0.95" height="0.95" transform="translate(69.95 -8.08) rotate(24.65)"/><rect class="cls-13" x="44.53" y="108.22" width="0.95" height="0.95" transform="translate(70.55 -8.87) rotate(24.65)"/><rect class="cls-13" x="46.64" y="109.19" width="0.95" height="0.95" transform="translate(71.14 -9.66) rotate(24.65)"/><rect class="cls-13" x="48.75" y="110.16" width="0.95" height="0.95" transform="translate(71.74 -10.45) rotate(24.65)"/><rect class="cls-13" x="50.85" y="111.12" width="0.95" height="0.95" transform="translate(72.33 -11.24) rotate(24.65)"/><rect class="cls-13" x="52.96" y="112.09" width="0.95" height="0.95" transform="translate(72.93 -12.03) rotate(24.65)"/><rect class="cls-13" x="55.07" y="113.06" width="0.95" height="0.95" transform="translate(73.52 -12.82) rotate(24.65)"/><rect class="cls-13" x="24.61" y="101.63" width="0.95" height="0.95" transform="translate(65.98 -1.16) rotate(24.65)"/><rect class="cls-13" x="26.72" y="102.6" width="0.95" height="0.95" transform="translate(66.58 -1.95) rotate(24.65)"/><rect class="cls-13" x="28.82" y="103.57" width="0.95" height="0.95" transform="translate(67.17 -2.74) rotate(24.65)"/><rect class="cls-13" x="30.93" y="104.53" width="0.95" height="0.95" transform="translate(67.77 -3.53) rotate(24.65)"/><rect class="cls-13" x="33.04" y="105.5" width="0.95" height="0.95" transform="translate(68.36 -4.32) rotate(24.65)"/><rect class="cls-13" x="35.14" y="106.46" width="0.95" height="0.95" transform="translate(68.96 -5.11) rotate(24.65)"/><rect class="cls-13" x="37.25" y="107.43" width="0.95" height="0.95" transform="translate(69.55 -5.9) rotate(24.65)"/><rect class="cls-13" x="39.36" y="108.4" width="0.95" height="0.95" transform="translate(70.15 -6.69) rotate(24.65)"/><rect class="cls-13" x="41.46" y="109.36" width="0.95" height="0.95" transform="translate(70.74 -7.48) rotate(24.65)"/><rect class="cls-13" x="43.57" y="110.33" width="0.95" height="0.95" transform="translate(71.34 -8.27) rotate(24.65)"/><rect class="cls-13" x="45.67" y="111.3" width="0.95" height="0.95" transform="translate(71.93 -9.06) rotate(24.65)"/><rect class="cls-13" x="47.78" y="112.26" width="0.95" height="0.95" transform="translate(72.53 -9.85) rotate(24.65)"/><rect class="cls-13" x="49.89" y="113.23" width="0.95" height="0.95" transform="translate(73.12 -10.64) rotate(24.65)"/><rect class="cls-13" x="51.99" y="114.2" width="0.95" height="0.95" transform="translate(73.72 -11.43) rotate(24.65)"/><rect class="cls-13" x="54.1" y="115.16" width="0.95" height="0.95" transform="translate(74.31 -12.22) rotate(24.65)"/><rect class="cls-13" x="23.64" y="103.74" width="0.95" height="0.95" transform="translate(66.77 -0.56) rotate(24.65)"/><rect class="cls-13" x="25.75" y="104.71" width="0.95" height="0.95" transform="translate(67.37 -1.35) rotate(24.65)"/><rect class="cls-13" x="27.86" y="105.67" width="0.95" height="0.95" transform="translate(67.96 -2.14) rotate(24.65)"/><rect class="cls-13" x="29.96" y="106.64" width="0.95" height="0.95" transform="translate(68.56 -2.94) rotate(24.65)"/><rect class="cls-13" x="32.07" y="107.6" width="0.95" height="0.95" transform="translate(69.15 -3.73) rotate(24.65)"/><rect class="cls-13" x="34.18" y="108.57" width="0.95" height="0.95" transform="translate(69.75 -4.52) rotate(24.65)"/><rect class="cls-13" x="36.28" y="109.54" width="0.95" height="0.95" transform="translate(70.34 -5.31) rotate(24.65)"/><rect class="cls-13" x="38.39" y="110.5" width="0.95" height="0.95" transform="translate(70.94 -6.1) rotate(24.65)"/><rect class="cls-13" x="40.5" y="111.47" width="0.95" height="0.95" transform="translate(71.53 -6.89) rotate(24.65)"/><rect class="cls-13" x="42.6" y="112.44" width="0.95" height="0.95" transform="translate(72.13 -7.68) rotate(24.65)"/><rect class="cls-13" x="44.71" y="113.4" width="0.95" height="0.95" transform="translate(72.72 -8.47) rotate(24.65)"/><rect class="cls-13" x="46.81" y="114.37" width="0.95" height="0.95" transform="translate(73.32 -9.26) rotate(24.65)"/><rect class="cls-13" x="48.92" y="115.34" width="0.95" height="0.95" transform="translate(73.91 -10.05) rotate(24.65)"/><rect class="cls-13" x="51.03" y="116.3" width="0.95" height="0.95" transform="translate(74.51 -10.84) rotate(24.65)"/><rect class="cls-13" x="53.13" y="117.27" width="0.95" height="0.95" transform="translate(75.1 -11.63) rotate(24.65)"/><rect class="cls-13" x="22.68" y="105.85" width="0.95" height="0.95" transform="translate(67.56 0.03) rotate(24.65)"/><rect class="cls-13" x="24.78" y="106.81" width="0.95" height="0.95" transform="translate(68.16 -0.76) rotate(24.65)"/><rect class="cls-13" x="26.89" y="107.78" width="0.95" height="0.95" transform="translate(68.75 -1.55) rotate(24.65)"/><rect class="cls-13" x="29" y="108.74" width="0.95" height="0.95" transform="translate(69.35 -2.34) rotate(24.65)"/><rect class="cls-13" x="31.1" y="109.71" width="0.95" height="0.95" transform="translate(69.94 -3.13) rotate(24.65)"/><rect class="cls-13" x="33.21" y="110.68" width="0.95" height="0.95" transform="translate(70.54 -3.92) rotate(24.65)"/><rect class="cls-13" x="35.32" y="111.64" width="0.95" height="0.95" transform="translate(71.13 -4.71) rotate(24.65)"/><rect class="cls-13" x="37.42" y="112.61" width="0.95" height="0.95" transform="translate(71.73 -5.5) rotate(24.65)"/><rect class="cls-13" x="39.53" y="113.58" width="0.95" height="0.95" transform="translate(72.32 -6.29) rotate(24.65)"/><rect class="cls-13" x="41.64" y="114.54" width="0.95" height="0.95" transform="translate(72.92 -7.08) rotate(24.65)"/><rect class="cls-13" x="43.74" y="115.51" width="0.95" height="0.95" transform="translate(73.51 -7.87) rotate(24.65)"/><rect class="cls-13" x="45.85" y="116.48" width="0.95" height="0.95" transform="translate(74.11 -8.66) rotate(24.65)"/><rect class="cls-13" x="47.95" y="117.44" width="0.95" height="0.95" transform="translate(74.7 -9.45) rotate(24.65)"/><rect class="cls-13" x="50.06" y="118.41" width="0.95" height="0.95" transform="translate(75.3 -10.24) rotate(24.65)"/><rect class="cls-13" x="52.17" y="119.37" width="0.95" height="0.95" transform="translate(75.89 -11.03) rotate(24.65)"/><rect class="cls-13" x="21.71" y="107.95" width="0.95" height="0.95" transform="translate(68.35 0.63) rotate(24.65)"/><rect class="cls-13" x="23.82" y="108.92" width="0.95" height="0.95" transform="translate(68.95 -0.16) rotate(24.65)"/><rect class="cls-13" x="25.92" y="109.88" width="0.95" height="0.95" transform="translate(69.54 -0.96) rotate(24.65)"/><rect class="cls-13" x="28.03" y="110.85" width="0.95" height="0.95" transform="translate(70.14 -1.75) rotate(24.65)"/><rect class="cls-13" x="30.14" y="111.82" width="0.95" height="0.95" transform="translate(70.73 -2.54) rotate(24.65)"/><rect class="cls-13" x="32.24" y="112.78" width="0.95" height="0.95" transform="translate(71.33 -3.33) rotate(24.65)"/><rect class="cls-13" x="34.35" y="113.75" width="0.95" height="0.95" transform="translate(71.92 -4.12) rotate(24.65)"/><rect class="cls-13" x="36.46" y="114.72" width="0.95" height="0.95" transform="translate(72.52 -4.91) rotate(24.65)"/><rect class="cls-13" x="38.56" y="115.68" width="0.95" height="0.95" transform="translate(73.11 -5.7) rotate(24.65)"/><rect class="cls-13" x="40.67" y="116.65" width="0.95" height="0.95" transform="translate(73.71 -6.49) rotate(24.65)"/><rect class="cls-13" x="42.78" y="117.62" width="0.95" height="0.95" transform="translate(74.3 -7.28) rotate(24.65)"/><rect class="cls-13" x="44.88" y="118.58" width="0.95" height="0.95" transform="translate(74.9 -8.07) rotate(24.65)"/><rect class="cls-13" x="46.99" y="119.55" width="0.95" height="0.95" transform="translate(75.49 -8.86) rotate(24.65)"/><rect class="cls-13" x="49.09" y="120.51" width="0.95" height="0.95" transform="translate(76.09 -9.65) rotate(24.65)"/><rect class="cls-13" x="51.2" y="121.48" width="0.95" height="0.95" transform="translate(76.68 -10.44) rotate(24.65)"/><rect class="cls-13" x="20.75" y="110.06" width="0.95" height="0.95" transform="translate(69.14 1.22) rotate(24.65)"/><rect class="cls-13" x="22.85" y="111.02" width="0.95" height="0.95" transform="translate(69.74 0.43) rotate(24.65)"/><rect class="cls-13" x="24.96" y="111.99" width="0.95" height="0.95" transform="translate(70.33 -0.36) rotate(24.65)"/><rect class="cls-13" x="27.06" y="112.96" width="0.95" height="0.95" transform="translate(70.93 -1.15) rotate(24.65)"/><rect class="cls-13" x="29.17" y="113.92" width="0.95" height="0.95" transform="translate(71.52 -1.94) rotate(24.65)"/><rect class="cls-13" x="31.28" y="114.89" width="0.95" height="0.95" transform="translate(72.12 -2.73) rotate(24.65)"/><rect class="cls-13" x="33.38" y="115.86" width="0.95" height="0.95" transform="translate(72.71 -3.52) rotate(24.65)"/><rect class="cls-13" x="35.49" y="116.82" width="0.95" height="0.95" transform="translate(73.31 -4.31) rotate(24.65)"/><rect class="cls-13" x="37.6" y="117.79" width="0.95" height="0.95" transform="translate(73.9 -5.1) rotate(24.65)"/><rect class="cls-13" x="39.7" y="118.76" width="0.95" height="0.95" transform="translate(74.5 -5.89) rotate(24.65)"/><rect class="cls-13" x="41.81" y="119.72" width="0.95" height="0.95" transform="translate(75.09 -6.68) rotate(24.65)"/><rect class="cls-13" x="43.92" y="120.69" width="0.95" height="0.95" transform="translate(75.69 -7.47) rotate(24.65)"/><rect class="cls-13" x="46.02" y="121.65" width="0.95" height="0.95" transform="translate(76.28 -8.26) rotate(24.65)"/><rect class="cls-13" x="48.13" y="122.62" width="0.95" height="0.95" transform="translate(76.88 -9.05) rotate(24.65)"/><rect class="cls-13" x="50.23" y="123.59" width="0.95" height="0.95" transform="translate(77.47 -9.84) rotate(24.65)"/><rect class="cls-13" x="19.78" y="112.16" width="0.95" height="0.95" transform="translate(69.93 1.82) rotate(24.65)"/><rect class="cls-13" x="21.89" y="113.13" width="0.95" height="0.95" transform="translate(70.53 1.02) rotate(24.65)"/><rect class="cls-13" x="23.99" y="114.1" width="0.95" height="0.95" transform="translate(71.12 0.23) rotate(24.65)"/><rect class="cls-13" x="26.1" y="115.06" width="0.95" height="0.95" transform="translate(71.72 -0.56) rotate(24.65)"/><rect class="cls-13" x="28.2" y="116.03" width="0.95" height="0.95" transform="translate(72.31 -1.35) rotate(24.65)"/><rect class="cls-13" x="30.31" y="117" width="0.95" height="0.95" transform="translate(72.91 -2.14) rotate(24.65)"/><rect class="cls-13" x="32.42" y="117.96" width="0.95" height="0.95" transform="translate(73.5 -2.93) rotate(24.65)"/><rect class="cls-13" x="34.52" y="118.93" width="0.95" height="0.95" transform="translate(74.1 -3.72) rotate(24.65)"/><rect class="cls-13" x="36.63" y="119.9" width="0.95" height="0.95" transform="translate(74.69 -4.51) rotate(24.65)"/><rect class="cls-13" x="38.74" y="120.86" width="0.95" height="0.95" transform="translate(75.29 -5.3) rotate(24.65)"/><rect class="cls-13" x="40.84" y="121.83" width="0.95" height="0.95" transform="translate(75.88 -6.09) rotate(24.65)"/><rect class="cls-13" x="42.95" y="122.79" width="0.95" height="0.95" transform="translate(76.48 -6.88) rotate(24.65)"/><rect class="cls-13" x="45.06" y="123.76" width="0.95" height="0.95" transform="translate(77.07 -7.67) rotate(24.65)"/><rect class="cls-13" x="47.16" y="124.73" width="0.95" height="0.95" transform="translate(77.67 -8.46) rotate(24.65)"/><rect class="cls-13" x="49.27" y="125.69" width="0.95" height="0.95" transform="translate(78.26 -9.25) rotate(24.65)"/></g><path d="M252.45,121.3h-1.17l-.93,0H250l-1.16,0s-14.53-13.44-31.08-16.45c1.83.21,21.48,2.54,24.14,2.66s3.18,1.21,3.18,1.21,6.66-.15,7.63.23-1,1.57,3.57,2.21a32.11,32.11,0,0,0,5.17.56s-.78,1.43,1.8,2.16a19.8,19.8,0,0,0,3.59.79s-.84,1.75,2.75,2.58,3.2.68,3.52,1.19C274.87,121.29,259.66,121.4,252.45,121.3Z" transform="translate(21.12)"/><path d="M244.67,79.5c-.55,0-1.2,1.16-1.2,2.45s.69,2.68,3.56,2.78,8.23-2.45,8.23-3.61S245.23,79.5,244.67,79.5Z" transform="translate(21.12)"/><path class="cls-14" d="M235.56,59.8S237,53.07,239.64,50a24.6,24.6,0,0,1,4.52-4.37c1.34-1,.82-2-.93-1.15A16.08,16.08,0,0,0,237.49,50C236.07,52.1,235.56,59.8,235.56,59.8Z" transform="translate(21.12)"/><path class="cls-14" d="M228.54,41.17s.84-6,1.79-7.22a17.86,17.86,0,0,0,2-2.62.78.78,0,0,0-1-1.08,4.56,4.56,0,0,0-2,2A16.53,16.53,0,0,0,228.54,41.17Z" transform="translate(21.12)"/><path class="cls-14" d="M223.35,37.42s-4.9-5.55-6.29-7.72a68.35,68.35,0,0,1-3.7-8.28,25.49,25.49,0,0,0,3.47,9.71A22.29,22.29,0,0,0,223.35,37.42Z" transform="translate(21.12)"/><path class="cls-14" d="M202.59,24.34s-2.62-4.81-4.26-6.14-3.27-1.73-2.53-1.05,1.7.56,3.46,2.78S202.59,24.34,202.59,24.34Z" transform="translate(21.12)"/><path class="cls-14" d="M160.48,10a4.51,4.51,0,0,0,1.75,2.4c1.57,1.3,6.54,2.59,8.67,3.36s6.75,2.44,6.75,2.44Z" transform="translate(21.12)"/><path class="cls-14" d="M134.3,7.63s3.58,3.45,7.22,4.62S149,14.41,149,14.41s-6.54.55-10-1.85A13.85,13.85,0,0,1,134.3,7.63Z" transform="translate(21.12)"/><path class="cls-14" d="M115.5,19.9c0-.47,1.57-1.21,3-1.7s4.07-.52,2.93-.15-3.24.49-4.07,1.05S115.5,20.36,115.5,19.9Z" transform="translate(21.12)"/><path class="cls-14" d="M235.37,61.7s-1.8,6.93.19,10.82,4.3,4.73,4.3,4.73a3.51,3.51,0,0,1,1-2c.88-.88,1.38-.83,1.38-.83s-3.51-3.2-4.67-5.83A52.26,52.26,0,0,1,235.37,61.7Z" transform="translate(21.12)"/><path class="cls-15" d="M217.58,52s-14.33-13.6-32.28-19.7-47.36-10.17-58.83-9.43c0,0,26.82.31,53.46,10C206.11,42.35,217.58,52,217.58,52Z" transform="translate(21.12)"/><path class="cls-15" d="M243.74,75.17a14.94,14.94,0,0,1-1.6,2.81,8.73,8.73,0,0,1,5.25-2.29,76.14,76.14,0,0,1,9.14-.19,55.64,55.64,0,0,0-8.74-.58C244.58,75.06,243.74,75.17,243.74,75.17Z" transform="translate(21.12)"/><path class="cls-14" d="M278.33,79.5s9.25,1.53,18.31,3.56,11.93,3.36,11.93,3.36-7.8-2-15.94-3.76S278.33,79.5,278.33,79.5Z" transform="translate(21.12)"/><path class="cls-14" d="M268.16,85.24s5.36-.28,10.17,0a75.89,75.89,0,0,1,8.18.87l-10.08-.74C272.92,85.11,268.16,85.24,268.16,85.24Z" transform="translate(21.12)"/><path class="cls-14" d="M257.12,88.7a31.16,31.16,0,0,1,8.45-.77,50.37,50.37,0,0,1,7.33.77s-5.46-.55-8.94-.57A45.06,45.06,0,0,0,257.12,88.7Z" transform="translate(21.12)"/><path class="cls-10" d="M43.17,75s15.48-20.71,39.37-33.5c29.51-15.8,43.93-18.59,43.93-18.59s-9.62-1.39-15.34.26C65.46,36.3,43.17,75,43.17,75Z" transform="translate(21.12)"/><path class="cls-10" d="M217.58,52a35.24,35.24,0,0,1,8.59,6.84c3.24,3.89,3.42,4.49,3.42,4.49s-4.74-5-7.1-7.15S217.58,52,217.58,52Z" transform="translate(21.12)"/></g><g id="conector"><polygon class="cls-16" points="201.48 97.75 201.48 107.34 180.41 128.41 101.73 128.41 73.48 100.16 70.87 105.77 98.46 133.36 182 133.36 205.74 109.62 205.74 98.33 201.48 97.75"/><polygon class="cls-17" points="182.22 133.88 98.24 133.88 70.5 106.14 71.24 105.4 98.68 132.83 181.78 132.83 205.21 109.4 205.21 98.33 206.26 98.33 206.26 109.84 182.22 133.88"/><circle class="cls-18" cx="206.42" cy="77.25" r="21.09"/><path class="cls-19" d="M167,70.12A17.1,17.1,0,0,1,177,59.23a22.33,22.33,0,0,1,15.69-.34s-8.47-1.15-15.18,1.41S167,70.12,167,70.12Z" transform="translate(21.12)"/></g><circle class="cls-20" cx="206.42" cy="77.25" r="16.28"/><path class="cls-21" d="M190.47,63a15.55,15.55,0,0,0-15.6,3.39,12.93,12.93,0,0,0-4,12.24,25.24,25.24,0,0,1,5.37-9.89C180.44,63.92,190.47,63,190.47,63Z" transform="translate(21.12)"/><g id="chip"><polygon class="cls-22" points="59.46 81.91 69.02 86.93 58.6 102.5 49.94 98 59.46 81.91"/><polygon class="cls-23" points="62.45 83.44 61.45 82.92 62.42 81.22 63.41 81.74 62.45 83.44"/><polygon class="cls-23" points="64.02 84.24 63.03 83.72 63.99 82.02 64.98 82.53 64.02 84.24"/><polygon class="cls-23" points="65.53 85.06 64.54 84.54 65.5 82.84 66.49 83.35 65.53 85.06"/><polygon class="cls-23" points="67.04 85.87 66.05 85.35 67.02 83.65 68 84.17 67.04 85.87"/><polygon class="cls-23" points="68.55 86.69 67.56 86.17 68.53 84.47 69.51 84.99 68.55 86.69"/><polygon class="cls-23" points="52.65 101.65 51.66 101.13 52.63 99.43 53.61 99.94 52.65 101.65"/><polygon class="cls-23" points="54.16 102.47 53.17 101.95 54.14 100.25 55.12 100.76 54.16 102.47"/><polygon class="cls-23" points="55.67 103.28 54.68 102.76 55.65 101.06 56.63 101.58 55.67 103.28"/><polygon class="cls-23" points="57.19 104.1 56.19 103.58 57.16 101.88 58.15 102.39 57.19 104.1"/><polygon class="cls-23" points="61.09 102.36 60.46 103.28 58.88 102.13 59.5 101.21 61.09 102.36"/><polygon class="cls-23" points="63.17 99.3 62.54 100.23 60.96 99.08 61.58 98.16 63.17 99.3"/><polygon class="cls-23" points="64.21 97.78 63.58 98.7 62 97.55 62.62 96.63 64.21 97.78"/><polygon class="cls-23" points="65.25 96.25 64.62 97.18 63.04 96.03 63.66 95.1 65.25 96.25"/><polygon class="cls-23" points="66.29 94.73 65.66 95.65 64.08 94.5 64.7 93.58 66.29 94.73"/><polygon class="cls-23" points="67.33 93.2 66.7 94.13 65.12 92.97 65.75 92.05 67.33 93.2"/><polygon class="cls-23" points="68.37 91.67 67.74 92.6 66.16 91.45 66.79 90.53 68.37 91.67"/><polygon class="cls-23" points="69.41 90.15 68.78 91.08 67.2 89.92 67.83 89 69.41 90.15"/><polygon class="cls-23" points="70.45 88.62 69.82 89.55 68.24 88.39 68.87 87.47 70.45 88.62"/><polygon class="cls-23" points="62.13 100.83 61.5 101.76 59.92 100.6 60.54 99.68 62.13 100.83"/><path class="cls-24" d="M38.52,84l2.81,1.51a10,10,0,0,0-2.41-.19,2.25,2.25,0,0,0-1.6.83Z" transform="translate(21.12)"/></g><circle class="cls-25" cx="206.42" cy="77.25" r="18.34"/></g></g></svg>