<?xml version="1.0" encoding="UTF-8" standalone="no"?>
<svg
   xmlns:dc="http://purl.org/dc/elements/1.1/"
   xmlns:cc="http://creativecommons.org/ns#"
   xmlns:rdf="http://www.w3.org/1999/02/22-rdf-syntax-ns#"
   xmlns:svg="http://www.w3.org/2000/svg"
   xmlns="http://www.w3.org/2000/svg"
   xmlns:sodipodi="http://sodipodi.sourceforge.net/DTD/sodipodi-0.dtd"
   xmlns:inkscape="http://www.inkscape.org/namespaces/inkscape"
   inkscape:version="1.0 (4035a4fb49, 2020-05-01)"
   sodipodi:docname="smith_blue.svg"
   id="svg554"
   viewBox="0 0 1067.1 479.73"
   version="1.1"
   height="479.73mm"
   width="1067.1mm">
  <sodipodi:namedview
     inkscape:current-layer="svg554"
     inkscape:window-maximized="1"
     inkscape:window-y="-8"
     inkscape:window-x="-8"
     inkscape:cy="1287.3332"
     inkscape:cx="2915.6327"
     inkscape:zoom="1.2972543"
     showgrid="false"
     id="namedview556"
     inkscape:window-height="1017"
     inkscape:window-width="1920"
     inkscape:pageshadow="2"
     inkscape:pageopacity="0"
     guidetolerance="10"
     gridtolerance="10"
     objecttolerance="10"
     borderopacity="1"
     bordercolor="#666666"
     pagecolor="#ffffff" />
  <defs
     id="defs222">
    <filter
       color-interpolation-filters="sRGB"
       id="filter2097">
      <feFlood
         id="feFlood2"
         result="flood"
         flood-opacity=".49804"
         flood-color="rgb(0,0,0)" />
      <feComposite
         id="feComposite4"
         result="composite1"
         operator="out"
         in2="SourceGraphic"
         in="flood" />
      <feGaussianBlur
         id="feGaussianBlur6"
         stdDeviation="0.6"
         result="blur"
         in="composite1" />
      <feOffset
         id="feOffset8"
         result="offset"
         dy="0.8"
         dx="0.8" />
      <feComposite
         id="feComposite10"
         result="composite2"
         operator="atop"
         in2="SourceGraphic"
         in="offset" />
    </filter>
    <filter
       color-interpolation-filters="sRGB"
       id="filter2109">
      <feFlood
         id="feFlood13"
         result="flood"
         flood-opacity=".49804"
         flood-color="rgb(0,0,0)" />
      <feComposite
         id="feComposite15"
         result="composite1"
         operator="out"
         in2="SourceGraphic"
         in="flood" />
      <feGaussianBlur
         id="feGaussianBlur17"
         stdDeviation="0.6"
         result="blur"
         in="composite1" />
      <feOffset
         id="feOffset19"
         result="offset"
         dy="0.8"
         dx="0.8" />
      <feComposite
         id="feComposite21"
         result="composite2"
         operator="atop"
         in2="SourceGraphic"
         in="offset" />
    </filter>
    <filter
       color-interpolation-filters="sRGB"
       id="filter2121">
      <feFlood
         id="feFlood24"
         result="flood"
         flood-opacity=".49804"
         flood-color="rgb(0,0,0)" />
      <feComposite
         id="feComposite26"
         result="composite1"
         operator="out"
         in2="SourceGraphic"
         in="flood" />
      <feGaussianBlur
         id="feGaussianBlur28"
         stdDeviation="0.6"
         result="blur"
         in="composite1" />
      <feOffset
         id="feOffset30"
         result="offset"
         dy="0.8"
         dx="0.8" />
      <feComposite
         id="feComposite32"
         result="composite2"
         operator="atop"
         in2="SourceGraphic"
         in="offset" />
    </filter>
    <filter
       color-interpolation-filters="sRGB"
       id="filter2133">
      <feFlood
         id="feFlood35"
         result="flood"
         flood-opacity=".49804"
         flood-color="rgb(0,0,0)" />
      <feComposite
         id="feComposite37"
         result="composite1"
         operator="out"
         in2="SourceGraphic"
         in="flood" />
      <feGaussianBlur
         id="feGaussianBlur39"
         stdDeviation="0.6"
         result="blur"
         in="composite1" />
      <feOffset
         id="feOffset41"
         result="offset"
         dy="0.8"
         dx="0.8" />
      <feComposite
         id="feComposite43"
         result="composite2"
         operator="atop"
         in2="SourceGraphic"
         in="offset" />
    </filter>
    <filter
       color-interpolation-filters="sRGB"
       id="filter2145">
      <feFlood
         id="feFlood46"
         result="flood"
         flood-opacity=".49804"
         flood-color="rgb(0,0,0)" />
      <feComposite
         id="feComposite48"
         result="composite1"
         operator="out"
         in2="SourceGraphic"
         in="flood" />
      <feGaussianBlur
         id="feGaussianBlur50"
         stdDeviation="0.6"
         result="blur"
         in="composite1" />
      <feOffset
         id="feOffset52"
         result="offset"
         dy="0.8"
         dx="0.8" />
      <feComposite
         id="feComposite54"
         result="composite2"
         operator="atop"
         in2="SourceGraphic"
         in="offset" />
    </filter>
    <filter
       color-interpolation-filters="sRGB"
       id="filter2157">
      <feFlood
         id="feFlood57"
         result="flood"
         flood-opacity=".49804"
         flood-color="rgb(0,0,0)" />
      <feComposite
         id="feComposite59"
         result="composite1"
         operator="out"
         in2="SourceGraphic"
         in="flood" />
      <feGaussianBlur
         id="feGaussianBlur61"
         stdDeviation="0.6"
         result="blur"
         in="composite1" />
      <feOffset
         id="feOffset63"
         result="offset"
         dy="0.8"
         dx="0.8" />
      <feComposite
         id="feComposite65"
         result="composite2"
         operator="atop"
         in2="SourceGraphic"
         in="offset" />
    </filter>
    <filter
       color-interpolation-filters="sRGB"
       id="filter2169">
      <feFlood
         id="feFlood68"
         result="flood"
         flood-opacity=".49804"
         flood-color="rgb(0,0,0)" />
      <feComposite
         id="feComposite70"
         result="composite1"
         operator="out"
         in2="SourceGraphic"
         in="flood" />
      <feGaussianBlur
         id="feGaussianBlur72"
         stdDeviation="0.6"
         result="blur"
         in="composite1" />
      <feOffset
         id="feOffset74"
         result="offset"
         dy="0.8"
         dx="0.8" />
      <feComposite
         id="feComposite76"
         result="composite2"
         operator="atop"
         in2="SourceGraphic"
         in="offset" />
    </filter>
    <filter
       color-interpolation-filters="sRGB"
       id="filter2181">
      <feFlood
         id="feFlood79"
         result="flood"
         flood-opacity=".49804"
         flood-color="rgb(0,0,0)" />
      <feComposite
         id="feComposite81"
         result="composite1"
         operator="out"
         in2="SourceGraphic"
         in="flood" />
      <feGaussianBlur
         id="feGaussianBlur83"
         stdDeviation="0.6"
         result="blur"
         in="composite1" />
      <feOffset
         id="feOffset85"
         result="offset"
         dy="0.8"
         dx="0.8" />
      <feComposite
         id="feComposite87"
         result="composite2"
         operator="atop"
         in2="SourceGraphic"
         in="offset" />
    </filter>
    <filter
       color-interpolation-filters="sRGB"
       id="filter2193">
      <feFlood
         id="feFlood90"
         result="flood"
         flood-opacity=".49804"
         flood-color="rgb(0,0,0)" />
      <feComposite
         id="feComposite92"
         result="composite1"
         operator="out"
         in2="SourceGraphic"
         in="flood" />
      <feGaussianBlur
         id="feGaussianBlur94"
         stdDeviation="0.6"
         result="blur"
         in="composite1" />
      <feOffset
         id="feOffset96"
         result="offset"
         dy="0.8"
         dx="0.8" />
      <feComposite
         id="feComposite98"
         result="composite2"
         operator="atop"
         in2="SourceGraphic"
         in="offset" />
    </filter>
    <filter
       color-interpolation-filters="sRGB"
       id="filter2205">
      <feFlood
         id="feFlood101"
         result="flood"
         flood-opacity=".49804"
         flood-color="rgb(0,0,0)" />
      <feComposite
         id="feComposite103"
         result="composite1"
         operator="out"
         in2="SourceGraphic"
         in="flood" />
      <feGaussianBlur
         id="feGaussianBlur105"
         stdDeviation="0.6"
         result="blur"
         in="composite1" />
      <feOffset
         id="feOffset107"
         result="offset"
         dy="0.8"
         dx="0.8" />
      <feComposite
         id="feComposite109"
         result="composite2"
         operator="atop"
         in2="SourceGraphic"
         in="offset" />
    </filter>
    <filter
       color-interpolation-filters="sRGB"
       id="filter2217">
      <feFlood
         id="feFlood112"
         result="flood"
         flood-opacity=".49804"
         flood-color="rgb(0,0,0)" />
      <feComposite
         id="feComposite114"
         result="composite1"
         operator="out"
         in2="SourceGraphic"
         in="flood" />
      <feGaussianBlur
         id="feGaussianBlur116"
         stdDeviation="0.6"
         result="blur"
         in="composite1" />
      <feOffset
         id="feOffset118"
         result="offset"
         dy="0.8"
         dx="0.8" />
      <feComposite
         id="feComposite120"
         result="composite2"
         operator="atop"
         in2="SourceGraphic"
         in="offset" />
    </filter>
    <filter
       color-interpolation-filters="sRGB"
       id="filter2229">
      <feFlood
         id="feFlood123"
         result="flood"
         flood-opacity=".49804"
         flood-color="rgb(0,0,0)" />
      <feComposite
         id="feComposite125"
         result="composite1"
         operator="out"
         in2="SourceGraphic"
         in="flood" />
      <feGaussianBlur
         id="feGaussianBlur127"
         stdDeviation="0.6"
         result="blur"
         in="composite1" />
      <feOffset
         id="feOffset129"
         result="offset"
         dy="0.8"
         dx="0.8" />
      <feComposite
         id="feComposite131"
         result="composite2"
         operator="atop"
         in2="SourceGraphic"
         in="offset" />
    </filter>
    <filter
       color-interpolation-filters="sRGB"
       id="filter2241">
      <feFlood
         id="feFlood134"
         result="flood"
         flood-opacity=".49804"
         flood-color="rgb(0,0,0)" />
      <feComposite
         id="feComposite136"
         result="composite1"
         operator="out"
         in2="SourceGraphic"
         in="flood" />
      <feGaussianBlur
         id="feGaussianBlur138"
         stdDeviation="0.6"
         result="blur"
         in="composite1" />
      <feOffset
         id="feOffset140"
         result="offset"
         dy="0.8"
         dx="0.8" />
      <feComposite
         id="feComposite142"
         result="composite2"
         operator="atop"
         in2="SourceGraphic"
         in="offset" />
    </filter>
    <filter
       color-interpolation-filters="sRGB"
       id="filter2380">
      <feFlood
         id="feFlood145"
         result="flood"
         flood-opacity=".49804"
         flood-color="rgb(0,0,0)" />
      <feComposite
         id="feComposite147"
         result="composite1"
         operator="out"
         in2="SourceGraphic"
         in="flood" />
      <feGaussianBlur
         id="feGaussianBlur149"
         stdDeviation="1.5"
         result="blur"
         in="composite1" />
      <feOffset
         id="feOffset151"
         result="offset"
         dy="0"
         dx="0" />
      <feComposite
         id="feComposite153"
         result="composite2"
         operator="atop"
         in2="SourceGraphic"
         in="offset" />
    </filter>
    <filter
       color-interpolation-filters="sRGB"
       id="filter2392">
      <feFlood
         id="feFlood156"
         result="flood"
         flood-opacity=".49804"
         flood-color="rgb(0,0,0)" />
      <feComposite
         id="feComposite158"
         result="composite1"
         operator="out"
         in2="SourceGraphic"
         in="flood" />
      <feGaussianBlur
         id="feGaussianBlur160"
         stdDeviation="1.5"
         result="blur"
         in="composite1" />
      <feOffset
         id="feOffset162"
         result="offset"
         dy="0"
         dx="0" />
      <feComposite
         id="feComposite164"
         result="composite2"
         operator="atop"
         in2="SourceGraphic"
         in="offset" />
    </filter>
    <filter
       color-interpolation-filters="sRGB"
       id="filter3508">
      <feFlood
         id="feFlood167"
         result="flood"
         flood-opacity=".49804"
         flood-color="rgb(0,0,0)" />
      <feComposite
         id="feComposite169"
         result="composite1"
         operator="out"
         in2="SourceGraphic"
         in="flood" />
      <feGaussianBlur
         id="feGaussianBlur171"
         stdDeviation="1"
         result="blur"
         in="composite1" />
      <feOffset
         id="feOffset173"
         result="offset"
         dy="0"
         dx="-2.69461" />
      <feComposite
         id="feComposite175"
         result="composite2"
         operator="atop"
         in2="SourceGraphic"
         in="offset" />
    </filter>
    <filter
       color-interpolation-filters="sRGB"
       id="filter3520">
      <feFlood
         id="feFlood178"
         result="flood"
         flood-opacity=".49804"
         flood-color="rgb(0,0,0)" />
      <feComposite
         id="feComposite180"
         result="composite1"
         operator="out"
         in2="SourceGraphic"
         in="flood" />
      <feGaussianBlur
         id="feGaussianBlur182"
         stdDeviation="1"
         result="blur"
         in="composite1" />
      <feOffset
         id="feOffset184"
         result="offset"
         dy="0"
         dx="-2.69461" />
      <feComposite
         id="feComposite186"
         result="composite2"
         operator="atop"
         in2="SourceGraphic"
         in="offset" />
    </filter>
    <filter
       color-interpolation-filters="sRGB"
       id="filter3532">
      <feFlood
         id="feFlood189"
         result="flood"
         flood-opacity=".49804"
         flood-color="rgb(0,0,0)" />
      <feComposite
         id="feComposite191"
         result="composite1"
         operator="out"
         in2="SourceGraphic"
         in="flood" />
      <feGaussianBlur
         id="feGaussianBlur193"
         stdDeviation="1"
         result="blur"
         in="composite1" />
      <feOffset
         id="feOffset195"
         result="offset"
         dy="0"
         dx="-2.69461" />
      <feComposite
         id="feComposite197"
         result="composite2"
         operator="atop"
         in2="SourceGraphic"
         in="offset" />
    </filter>
    <filter
       color-interpolation-filters="sRGB"
       id="filter3544">
      <feFlood
         id="feFlood200"
         result="flood"
         flood-opacity=".49804"
         flood-color="rgb(0,0,0)" />
      <feComposite
         id="feComposite202"
         result="composite1"
         operator="out"
         in2="SourceGraphic"
         in="flood" />
      <feGaussianBlur
         id="feGaussianBlur204"
         stdDeviation="1"
         result="blur"
         in="composite1" />
      <feOffset
         id="feOffset206"
         result="offset"
         dy="0"
         dx="-2.69461" />
      <feComposite
         id="feComposite208"
         result="composite2"
         operator="atop"
         in2="SourceGraphic"
         in="offset" />
    </filter>
    <filter
       color-interpolation-filters="sRGB"
       id="filter4209">
      <feFlood
         id="feFlood211"
         result="flood"
         flood-opacity=".49804"
         flood-color="rgb(0,0,0)" />
      <feComposite
         id="feComposite213"
         result="composite1"
         operator="out"
         in2="SourceGraphic"
         in="flood" />
      <feGaussianBlur
         id="feGaussianBlur215"
         stdDeviation="6"
         result="blur"
         in="composite1" />
      <feOffset
         id="feOffset217"
         result="offset"
         dy="3"
         dx="-3" />
      <feComposite
         id="feComposite219"
         result="composite2"
         operator="atop"
         in2="SourceGraphic"
         in="offset" />
    </filter>
  </defs>
  <metadata
     id="metadata224">
    <rdf:RDF>
      <cc:Work
         rdf:about="">
        <dc:format>image/svg+xml</dc:format>
        <dc:type
           rdf:resource="http://purl.org/dc/dcmitype/StillImage" />
        <dc:title />
      </cc:Work>
    </rdf:RDF>
  </metadata>
  <g
     id="g450"
     transform="translate(-904.92 -595.43)">
    <path
       id="path226"
       stroke-width=".26458px"
       stroke="#5f3924"
       filter="url(#filter4209)"
       fill="#834a2c"
       d="m1870.3 1035.2 12.819-12.819v-386.95h-876.39l-12.853 12.853z" />
    <rect
       id="rect228"
       fill="#b37553"
       height="386.95"
       width="876.43"
       y="648.23"
       x="993.85" />
    <g
       id="g278"
       filter="url(#filter3508)"
       fill="#955938">
      <path
         id="path230"
         d="m993.85 669.67 22.527 7.9096-22.527 2.6872z" />
      <path
         id="path232"
         d="m993.85 688.95s9.2979 4.3408 21.7 4.5475c12.402 0.20669 41.134-9.5085 50.643-10.542 9.5085-1.0335 47.956 4.7542 47.956 4.7542s-39.688-2.6872-47.336-1.8604c-7.6482 0.82682-39.067 11.369-51.47 13.229-12.402 1.8604-21.493 1.9152-21.493 1.9152z" />
      <path
         id="path234"
         d="m993.85 709.77s32.512-3.8002 53.851-5.5542c21.34-1.754 68.404 5.5542 68.404 5.5542s-47.064-2.6309-60.511-2.0463-61.744 8.7698-61.744 8.7698z" />
      <path
         id="path236"
         d="m1062.3 676.13s25.632-3.7207 44.442-3.514c18.81 0.20672 28.939 3.7207 37.414 4.1341s40.308-5.7878 40.308-5.7878-28.525 2.8939-39.067 1.447c-10.542-1.447-31.006-7.4414-42.168-7.028s-40.928 10.749-40.928 10.749z" />
      <path
         id="path238"
         d="m1032.9 727.81s21.242-9.5184 36.587-9.7152c16.123-0.2067 64.492 5.7878 64.492 5.7878s-49.196-3.514-62.838-2.6872c-13.773 0.83473-38.241 6.6146-38.241 6.6146z" />
      <path
         id="path240"
         d="m993.84 736.08s14.672 6.6146 27.281 7.2347c12.609 0.62013 29.766-8.0615 35.76-8.4749 5.9944-0.41341 24.391 4.7542 24.391 4.7542s-19.224-2.4805-25.632-0.6201c-6.4079 1.8603-20.257 9.095-31.419 9.7152-11.162 0.62013-30.382-3.3073-30.382-3.3073z" />
      <path
         id="path242"
         d="m993.85 765.75 22.527 7.9096-22.527 2.6872z" />
      <path
         id="path244"
         d="m993.85 785.03s9.2979 4.3408 21.7 4.5475c12.402 0.20668 41.134-9.5085 50.643-10.542 9.5085-1.0335 47.956 4.7542 47.956 4.7542s-39.688-2.6872-47.336-1.8604c-7.6482 0.82682-39.067 11.369-51.47 13.229-12.402 1.8604-21.493 1.9152-21.493 1.9152z" />
      <path
         id="path246"
         d="m993.85 805.84s32.512-3.8002 53.851-5.5542c21.34-1.754 68.404 5.5542 68.404 5.5542s-47.064-2.6309-60.511-2.0463-61.744 8.7698-61.744 8.7698z" />
      <path
         id="path248"
         d="m1062.3 772.21s25.632-3.7207 44.442-3.514c18.81 0.20672 28.939 3.7207 37.414 4.1341s40.308-5.7878 40.308-5.7878-28.525 2.8939-39.067 1.447c-10.542-1.447-31.006-7.4414-42.168-7.028s-40.928 10.749-40.928 10.749z" />
      <path
         id="path250"
         d="m1032.9 823.89s21.242-9.5184 36.587-9.7152c16.123-0.2067 64.492 5.7878 64.492 5.7878s-49.196-3.514-62.838-2.6872c-13.773 0.83473-38.241 6.6146-38.241 6.6146z" />
      <path
         id="path252"
         d="m993.84 832.16s14.672 6.6146 27.281 7.2347c12.609 0.62014 29.766-8.0615 35.76-8.4749 5.9944-0.41341 24.391 4.7542 24.391 4.7542s-19.224-2.4805-25.632-0.6201c-6.4079 1.8603-20.257 9.095-31.419 9.7152-11.162 0.62013-30.382-3.3073-30.382-3.3073z" />
      <path
         id="path254"
         d="m993.85 860.86 22.527 7.9096-22.527 2.6872z" />
      <path
         id="path256"
         d="m993.85 880.14s9.2979 4.3408 21.7 4.5475c12.402 0.20669 41.134-9.5085 50.643-10.542 9.5085-1.0335 47.956 4.7542 47.956 4.7542s-39.688-2.6872-47.336-1.8604c-7.6482 0.82682-39.067 11.369-51.47 13.229-12.402 1.8604-21.493 1.9152-21.493 1.9152z" />
      <path
         id="path258"
         d="m993.85 900.95s32.512-3.8002 53.851-5.5542c21.34-1.754 68.404 5.5542 68.404 5.5542s-47.064-2.6309-60.511-2.0463-61.744 8.7698-61.744 8.7698z" />
      <path
         id="path260"
         d="m1062.3 867.32s25.632-3.7207 44.442-3.514c18.81 0.20672 28.939 3.7207 37.414 4.1341s40.308-5.7878 40.308-5.7878-28.525 2.8939-39.067 1.447c-10.542-1.447-31.006-7.4414-42.168-7.028s-40.928 10.749-40.928 10.749z" />
      <path
         id="path262"
         d="m1032.9 919s21.242-9.5184 36.587-9.7152c16.123-0.2067 64.492 5.7878 64.492 5.7878s-49.196-3.514-62.838-2.6872c-13.773 0.83473-38.241 6.6146-38.241 6.6146z" />
      <path
         id="path264"
         d="m993.84 927.26s14.672 6.6146 27.281 7.2347c12.609 0.62013 29.766-8.0615 35.76-8.4749 5.9944-0.41341 24.391 4.7542 24.391 4.7542s-19.224-2.4805-25.632-0.6201c-6.4079 1.8603-20.257 9.095-31.419 9.7152-11.162 0.62013-30.382-3.3073-30.382-3.3073z" />
      <path
         id="path266"
         d="m993.85 950.58 22.527 7.9097-22.527 2.6872z" />
      <path
         id="path268"
         d="m993.85 969.86s9.2978 4.3408 21.7 4.5475c12.402 0.2067 41.134-9.5084 50.643-10.542 9.5085-1.0335 47.956 4.7543 47.956 4.7543s-39.688-2.6872-47.336-1.8604c-7.6482 0.8268-39.067 11.369-51.47 13.229-12.402 1.8603-21.493 1.9151-21.493 1.9151z" />
      <path
         id="path270"
         d="m993.85 990.68s32.512-3.8002 53.851-5.5542c21.34-1.7539 68.404 5.5542 68.404 5.5542s-47.064-2.6309-60.511-2.0462c-13.447 0.5846-61.744 8.7697-61.744 8.7697z" />
      <path
         id="path272"
         d="m1062.3 957.05s25.632-3.7207 44.442-3.514c18.81 0.2068 28.939 3.7207 37.414 4.1342 8.4749 0.4134 40.308-5.7878 40.308-5.7878s-28.525 2.8939-39.067 1.4469c-10.542-1.4469-31.006-7.4414-42.168-7.0279-11.162 0.4134-40.928 10.749-40.928 10.749z" />
      <path
         id="path274"
         d="m1032.9 1008.7s21.242-9.5185 36.587-9.7152c16.123-0.2067 64.492 5.7878 64.492 5.7878s-49.196-3.514-62.838-2.6872c-13.773 0.8347-38.241 6.6146-38.241 6.6146z" />
      <path
         id="path276"
         d="m993.84 1017s14.672 6.6146 27.281 7.2347c12.609 0.6201 29.766-8.0615 35.76-8.4749 5.9944-0.4134 24.391 4.7542 24.391 4.7542s-19.224-2.4805-25.632-0.6201c-6.4079 1.8603-20.257 9.095-31.419 9.7151-11.162 0.6202-30.382-3.3072-30.382-3.3072z" />
    </g>
    <g
       id="g328"
       filter="url(#filter3520)"
       fill="#955938"
       transform="matrix(-1 0 0 1 2864.1 -1.7657e-6)">
      <path
         id="path280"
         d="m993.85 669.67 22.527 7.9096-22.527 2.6872z" />
      <path
         id="path282"
         d="m993.85 688.95s9.2979 4.3408 21.7 4.5475c12.402 0.20669 41.134-9.5085 50.643-10.542 9.5085-1.0335 47.956 4.7542 47.956 4.7542s-39.688-2.6872-47.336-1.8604c-7.6482 0.82682-39.067 11.369-51.47 13.229-12.402 1.8604-21.493 1.9152-21.493 1.9152z" />
      <path
         id="path284"
         d="m993.85 709.77s32.512-3.8002 53.851-5.5542c21.34-1.754 68.404 5.5542 68.404 5.5542s-47.064-2.6309-60.511-2.0463-61.744 8.7698-61.744 8.7698z" />
      <path
         id="path286"
         d="m1062.3 676.13s25.632-3.7207 44.442-3.514c18.81 0.20672 28.939 3.7207 37.414 4.1341s40.308-5.7878 40.308-5.7878-28.525 2.8939-39.067 1.447c-10.542-1.447-31.006-7.4414-42.168-7.028s-40.928 10.749-40.928 10.749z" />
      <path
         id="path288"
         d="m1032.9 727.81s21.242-9.5184 36.587-9.7152c16.123-0.2067 64.492 5.7878 64.492 5.7878s-49.196-3.514-62.838-2.6872c-13.773 0.83473-38.241 6.6146-38.241 6.6146z" />
      <path
         id="path290"
         d="m993.84 736.08s14.672 6.6146 27.281 7.2347c12.609 0.62013 29.766-8.0615 35.76-8.4749 5.9944-0.41341 24.391 4.7542 24.391 4.7542s-19.224-2.4805-25.632-0.6201c-6.4079 1.8603-20.257 9.095-31.419 9.7152-11.162 0.62013-30.382-3.3073-30.382-3.3073z" />
      <path
         id="path292"
         d="m993.85 765.75 22.527 7.9096-22.527 2.6872z" />
      <path
         id="path294"
         d="m993.85 785.03s9.2979 4.3408 21.7 4.5475c12.402 0.20668 41.134-9.5085 50.643-10.542 9.5085-1.0335 47.956 4.7542 47.956 4.7542s-39.688-2.6872-47.336-1.8604c-7.6482 0.82682-39.067 11.369-51.47 13.229-12.402 1.8604-21.493 1.9152-21.493 1.9152z" />
      <path
         id="path296"
         d="m993.85 805.84s32.512-3.8002 53.851-5.5542c21.34-1.754 68.404 5.5542 68.404 5.5542s-47.064-2.6309-60.511-2.0463-61.744 8.7698-61.744 8.7698z" />
      <path
         id="path298"
         d="m1062.3 772.21s25.632-3.7207 44.442-3.514c18.81 0.20672 28.939 3.7207 37.414 4.1341s40.308-5.7878 40.308-5.7878-28.525 2.8939-39.067 1.447c-10.542-1.447-31.006-7.4414-42.168-7.028s-40.928 10.749-40.928 10.749z" />
      <path
         id="path300"
         d="m1032.9 823.89s21.242-9.5184 36.587-9.7152c16.123-0.2067 64.492 5.7878 64.492 5.7878s-49.196-3.514-62.838-2.6872c-13.773 0.83473-38.241 6.6146-38.241 6.6146z" />
      <path
         id="path302"
         d="m993.84 832.16s14.672 6.6146 27.281 7.2347c12.609 0.62014 29.766-8.0615 35.76-8.4749 5.9944-0.41341 24.391 4.7542 24.391 4.7542s-19.224-2.4805-25.632-0.6201c-6.4079 1.8603-20.257 9.095-31.419 9.7152-11.162 0.62013-30.382-3.3073-30.382-3.3073z" />
      <path
         id="path304"
         d="m993.85 860.86 22.527 7.9096-22.527 2.6872z" />
      <path
         id="path306"
         d="m993.85 880.14s9.2979 4.3408 21.7 4.5475c12.402 0.20669 41.134-9.5085 50.643-10.542 9.5085-1.0335 47.956 4.7542 47.956 4.7542s-39.688-2.6872-47.336-1.8604c-7.6482 0.82682-39.067 11.369-51.47 13.229-12.402 1.8604-21.493 1.9152-21.493 1.9152z" />
      <path
         id="path308"
         d="m993.85 900.95s32.512-3.8002 53.851-5.5542c21.34-1.754 68.404 5.5542 68.404 5.5542s-47.064-2.6309-60.511-2.0463-61.744 8.7698-61.744 8.7698z" />
      <path
         id="path310"
         d="m1062.3 867.32s25.632-3.7207 44.442-3.514c18.81 0.20672 28.939 3.7207 37.414 4.1341s40.308-5.7878 40.308-5.7878-28.525 2.8939-39.067 1.447c-10.542-1.447-31.006-7.4414-42.168-7.028s-40.928 10.749-40.928 10.749z" />
      <path
         id="path312"
         d="m1032.9 919s21.242-9.5184 36.587-9.7152c16.123-0.2067 64.492 5.7878 64.492 5.7878s-49.196-3.514-62.838-2.6872c-13.773 0.83473-38.241 6.6146-38.241 6.6146z" />
      <path
         id="path314"
         d="m993.84 927.26s14.672 6.6146 27.281 7.2347c12.609 0.62013 29.766-8.0615 35.76-8.4749 5.9944-0.41341 24.391 4.7542 24.391 4.7542s-19.224-2.4805-25.632-0.6201c-6.4079 1.8603-20.257 9.095-31.419 9.7152-11.162 0.62013-30.382-3.3073-30.382-3.3073z" />
      <path
         id="path316"
         d="m993.85 950.58 22.527 7.9097-22.527 2.6872z" />
      <path
         id="path318"
         d="m993.85 969.86s9.2978 4.3408 21.7 4.5475c12.402 0.2067 41.134-9.5084 50.643-10.542 9.5085-1.0335 47.956 4.7543 47.956 4.7543s-39.688-2.6872-47.336-1.8604c-7.6482 0.8268-39.067 11.369-51.47 13.229-12.402 1.8603-21.493 1.9151-21.493 1.9151z" />
      <path
         id="path320"
         d="m993.85 990.68s32.512-3.8002 53.851-5.5542c21.34-1.7539 68.404 5.5542 68.404 5.5542s-47.064-2.6309-60.511-2.0462c-13.447 0.5846-61.744 8.7697-61.744 8.7697z" />
      <path
         id="path322"
         d="m1062.3 957.05s25.632-3.7207 44.442-3.514c18.81 0.2068 28.939 3.7207 37.414 4.1342 8.4749 0.4134 40.308-5.7878 40.308-5.7878s-28.525 2.8939-39.067 1.4469c-10.542-1.4469-31.006-7.4414-42.168-7.0279-11.162 0.4134-40.928 10.749-40.928 10.749z" />
      <path
         id="path324"
         d="m1032.9 1008.7s21.242-9.5185 36.587-9.7152c16.123-0.2067 64.492 5.7878 64.492 5.7878s-49.196-3.514-62.838-2.6872c-13.773 0.8347-38.241 6.6146-38.241 6.6146z" />
      <path
         id="path326"
         d="m993.84 1017s14.672 6.6146 27.281 7.2347c12.609 0.6201 29.766-8.0615 35.76-8.4749 5.9944-0.4134 24.391 4.7542 24.391 4.7542s-19.224-2.4805-25.632-0.6201c-6.4079 1.8603-20.257 9.095-31.419 9.7151-11.162 0.6202-30.382-3.3072-30.382-3.3072z" />
    </g>
    <g
       id="g386"
       filter="url(#filter3532)">
      <g
         id="g342"
         fill="#955938">
        <path
           id="path330"
           d="m1140.2 695.36s59.945 6.2012 87.23 6.2012 74.414-7.4414 93.844-8.2682c19.43-0.82683 44.648 5.3744 44.648 5.3744s-37.62-2.8939-57.051-0.82683c-19.43 2.0671-74.001 12.816-101.29 11.162-27.285-1.6536-67.386-13.643-67.386-13.643z" />
        <path
           id="path332"
           d="m1227.5 682.29s45.895-9.0621 64.604-10.231c18.709-1.1693 40.633 1.1693 40.633 1.1693s-52.326-9.0621-74.835-3.5079-30.402 12.57-30.402 12.57z" />
        <path
           id="path334"
           d="m1301.1 720.88s47.357-10.524 67.82-10.524c20.463 0 33.033 4.9695 43.264 4.3849s30.579-9.9391 30.579-9.9391-18.886 14.909-39.933 15.493c-21.048 0.58465-25.725-6.4312-54.665-3.5079-28.94 2.9232-47.064 4.0926-47.064 4.0926z" />
        <path
           id="path336"
           d="m1337.7 683.75s26.894 5.5542 43.264 6.4312c16.37 0.87699 46.772-8.7698 46.772-8.7698s-25.432 5.8465-47.064 4.6772c-21.632-1.1693-42.972-2.3386-42.972-2.3386z" />
        <path
           id="path338"
           d="m1157.1 725.12s31.419 11.576 51.676 9.095 41.341-12.816 41.341-12.816-16.95 18.604-32.66 18.604c-31.419 0-60.358-14.883-60.358-14.883z" />
        <path
           id="path340"
           d="m1253.2 742.51s25.432-9.9391 32.448-9.3544c7.0159 0.58465 40.633 9.3544 49.988 9.0621 9.3544-0.29233 34.494-7.3082 34.494-7.3082s-24.848 13.155-35.956 12.862c-11.108-0.29231-36.248-11.401-49.403-10.816-13.155 0.58465-31.571 5.5542-31.571 5.5542z" />
      </g>
      <g
         id="g356"
         fill="#955938"
         transform="translate(-3.7858e-6 103.2)">
        <path
           id="path344"
           d="m1140.2 695.36s59.945 6.2012 87.23 6.2012 74.414-7.4414 93.844-8.2682c19.43-0.82683 44.648 5.3744 44.648 5.3744s-37.62-2.8939-57.051-0.82683c-19.43 2.0671-74.001 12.816-101.29 11.162-27.285-1.6536-67.386-13.643-67.386-13.643z" />
        <path
           id="path346"
           d="m1227.5 682.29s45.895-9.0621 64.604-10.231c18.709-1.1693 40.633 1.1693 40.633 1.1693s-52.326-9.0621-74.835-3.5079-30.402 12.57-30.402 12.57z" />
        <path
           id="path348"
           d="m1301.1 720.88s47.357-10.524 67.82-10.524c20.463 0 33.033 4.9695 43.264 4.3849s30.579-9.9391 30.579-9.9391-18.886 14.909-39.933 15.493c-21.048 0.58465-25.725-6.4312-54.665-3.5079-28.94 2.9232-47.064 4.0926-47.064 4.0926z" />
        <path
           id="path350"
           d="m1337.7 683.75s26.894 5.5542 43.264 6.4312c16.37 0.87699 46.772-8.7698 46.772-8.7698s-25.432 5.8465-47.064 4.6772c-21.632-1.1693-42.972-2.3386-42.972-2.3386z" />
        <path
           id="path352"
           d="m1157.1 725.12s31.419 11.576 51.676 9.095 41.341-12.816 41.341-12.816-16.95 18.604-32.66 18.604c-31.419 0-60.358-14.883-60.358-14.883z" />
        <path
           id="path354"
           d="m1253.2 742.51s25.432-9.9391 32.448-9.3544c7.0159 0.58465 40.633 9.3544 49.988 9.0621 9.3544-0.29233 34.494-7.3082 34.494-7.3082s-24.848 13.155-35.956 12.862c-11.108-0.29231-36.248-11.401-49.403-10.816-13.155 0.58465-31.571 5.5542-31.571 5.5542z" />
      </g>
      <g
         id="g370"
         fill="#955938"
         transform="translate(-3.7857e-6 198.35)">
        <path
           id="path358"
           d="m1140.2 695.36s59.945 6.2012 87.23 6.2012 74.414-7.4414 93.844-8.2682c19.43-0.82683 44.648 5.3744 44.648 5.3744s-37.62-2.8939-57.051-0.82683c-19.43 2.0671-74.001 12.816-101.29 11.162-27.285-1.6536-67.386-13.643-67.386-13.643z" />
        <path
           id="path360"
           d="m1227.5 682.29s45.895-9.0621 64.604-10.231c18.709-1.1693 40.633 1.1693 40.633 1.1693s-52.326-9.0621-74.835-3.5079-30.402 12.57-30.402 12.57z" />
        <path
           id="path362"
           d="m1301.1 720.88s47.357-10.524 67.82-10.524c20.463 0 33.033 4.9695 43.264 4.3849s30.579-9.9391 30.579-9.9391-18.886 14.909-39.933 15.493c-21.048 0.58465-25.725-6.4312-54.665-3.5079-28.94 2.9232-47.064 4.0926-47.064 4.0926z" />
        <path
           id="path364"
           d="m1337.7 683.75s26.894 5.5542 43.264 6.4312c16.37 0.87699 46.772-8.7698 46.772-8.7698s-25.432 5.8465-47.064 4.6772c-21.632-1.1693-42.972-2.3386-42.972-2.3386z" />
        <path
           id="path366"
           d="m1157.1 725.12s31.419 11.576 51.676 9.095 41.341-12.816 41.341-12.816-16.95 18.604-32.66 18.604c-31.419 0-60.358-14.883-60.358-14.883z" />
        <path
           id="path368"
           d="m1253.2 742.51s25.432-9.9391 32.448-9.3544c7.0159 0.58465 40.633 9.3544 49.988 9.0621 9.3544-0.29233 34.494-7.3082 34.494-7.3082s-24.848 13.155-35.956 12.862c-11.108-0.29231-36.248-11.401-49.403-10.816-13.155 0.58465-31.571 5.5542-31.571 5.5542z" />
      </g>
      <g
         id="g384"
         fill="#955938"
         transform="translate(-3.786e-6 284.31)">
        <path
           id="path372"
           d="m1140.2 695.36s59.945 6.2012 87.23 6.2012 74.414-7.4414 93.844-8.2682c19.43-0.82683 44.648 5.3744 44.648 5.3744s-37.62-2.8939-57.051-0.82683c-19.43 2.0671-74.001 12.816-101.29 11.162-27.285-1.6536-67.386-13.643-67.386-13.643z" />
        <path
           id="path374"
           d="m1227.5 682.29s45.895-9.0621 64.604-10.231c18.709-1.1693 40.633 1.1693 40.633 1.1693s-52.326-9.0621-74.835-3.5079-30.402 12.57-30.402 12.57z" />
        <path
           id="path376"
           d="m1301.1 720.88s47.357-10.524 67.82-10.524c20.463 0 33.033 4.9695 43.264 4.3849s30.579-9.9391 30.579-9.9391-18.886 14.909-39.933 15.493c-21.048 0.58465-25.725-6.4312-54.665-3.5079-28.94 2.9232-47.064 4.0926-47.064 4.0926z" />
        <path
           id="path378"
           d="m1337.7 683.75s26.894 5.5542 43.264 6.4312c16.37 0.87699 46.772-8.7698 46.772-8.7698s-25.432 5.8465-47.064 4.6772c-21.632-1.1693-42.972-2.3386-42.972-2.3386z" />
        <path
           id="path380"
           d="m1157.1 725.12s31.419 11.576 51.676 9.095 41.341-12.816 41.341-12.816-16.95 18.604-32.66 18.604c-31.419 0-60.358-14.883-60.358-14.883z" />
        <path
           id="path382"
           d="m1253.2 742.51s25.432-9.9391 32.448-9.3544c7.0159 0.58465 40.633 9.3544 49.988 9.0621 9.3544-0.29233 34.494-7.3082 34.494-7.3082s-24.848 13.155-35.956 12.862c-11.108-0.29231-36.248-11.401-49.403-10.816-13.155 0.58465-31.571 5.5542-31.571 5.5542z" />
      </g>
    </g>
    <g
       id="g444"
       filter="url(#filter3544)"
       transform="rotate(180 1442.8 846.95)">
      <g
         id="g400"
         fill="#955938">
        <path
           id="path388"
           d="m1140.2 695.36s59.945 6.2012 87.23 6.2012 74.414-7.4414 93.844-8.2682c19.43-0.82683 44.648 5.3744 44.648 5.3744s-37.62-2.8939-57.051-0.82683c-19.43 2.0671-74.001 12.816-101.29 11.162-27.285-1.6536-67.386-13.643-67.386-13.643z" />
        <path
           id="path390"
           d="m1227.5 682.29s45.895-9.0621 64.604-10.231c18.709-1.1693 40.633 1.1693 40.633 1.1693s-52.326-9.0621-74.835-3.5079-30.402 12.57-30.402 12.57z" />
        <path
           id="path392"
           d="m1301.1 720.88s47.357-10.524 67.82-10.524c20.463 0 33.033 4.9695 43.264 4.3849s30.579-9.9391 30.579-9.9391-18.886 14.909-39.933 15.493c-21.048 0.58465-25.725-6.4312-54.665-3.5079-28.94 2.9232-47.064 4.0926-47.064 4.0926z" />
        <path
           id="path394"
           d="m1337.7 683.75s26.894 5.5542 43.264 6.4312c16.37 0.87699 46.772-8.7698 46.772-8.7698s-25.432 5.8465-47.064 4.6772c-21.632-1.1693-42.972-2.3386-42.972-2.3386z" />
        <path
           id="path396"
           d="m1157.1 725.12s31.419 11.576 51.676 9.095 41.341-12.816 41.341-12.816-16.95 18.604-32.66 18.604c-31.419 0-60.358-14.883-60.358-14.883z" />
        <path
           id="path398"
           d="m1253.2 742.51s25.432-9.9391 32.448-9.3544c7.0159 0.58465 40.633 9.3544 49.988 9.0621 9.3544-0.29233 34.494-7.3082 34.494-7.3082s-24.848 13.155-35.956 12.862c-11.108-0.29231-36.248-11.401-49.403-10.816-13.155 0.58465-31.571 5.5542-31.571 5.5542z" />
      </g>
      <g
         id="g414"
         fill="#955938"
         transform="translate(-3.7858e-6 103.2)">
        <path
           id="path402"
           d="m1140.2 695.36s59.945 6.2012 87.23 6.2012 74.414-7.4414 93.844-8.2682c19.43-0.82683 44.648 5.3744 44.648 5.3744s-37.62-2.8939-57.051-0.82683c-19.43 2.0671-74.001 12.816-101.29 11.162-27.285-1.6536-67.386-13.643-67.386-13.643z" />
        <path
           id="path404"
           d="m1227.5 682.29s45.895-9.0621 64.604-10.231c18.709-1.1693 40.633 1.1693 40.633 1.1693s-52.326-9.0621-74.835-3.5079-30.402 12.57-30.402 12.57z" />
        <path
           id="path406"
           d="m1301.1 720.88s47.357-10.524 67.82-10.524c20.463 0 33.033 4.9695 43.264 4.3849s30.579-9.9391 30.579-9.9391-18.886 14.909-39.933 15.493c-21.048 0.58465-25.725-6.4312-54.665-3.5079-28.94 2.9232-47.064 4.0926-47.064 4.0926z" />
        <path
           id="path408"
           d="m1337.7 683.75s26.894 5.5542 43.264 6.4312c16.37 0.87699 46.772-8.7698 46.772-8.7698s-25.432 5.8465-47.064 4.6772c-21.632-1.1693-42.972-2.3386-42.972-2.3386z" />
        <path
           id="path410"
           d="m1157.1 725.12s31.419 11.576 51.676 9.095 41.341-12.816 41.341-12.816-16.95 18.604-32.66 18.604c-31.419 0-60.358-14.883-60.358-14.883z" />
        <path
           id="path412"
           d="m1253.2 742.51s25.432-9.9391 32.448-9.3544c7.0159 0.58465 40.633 9.3544 49.988 9.0621 9.3544-0.29233 34.494-7.3082 34.494-7.3082s-24.848 13.155-35.956 12.862c-11.108-0.29231-36.248-11.401-49.403-10.816-13.155 0.58465-31.571 5.5542-31.571 5.5542z" />
      </g>
      <g
         id="g428"
         fill="#955938"
         transform="translate(-3.7857e-6 198.35)">
        <path
           id="path416"
           d="m1140.2 695.36s59.945 6.2012 87.23 6.2012 74.414-7.4414 93.844-8.2682c19.43-0.82683 44.648 5.3744 44.648 5.3744s-37.62-2.8939-57.051-0.82683c-19.43 2.0671-74.001 12.816-101.29 11.162-27.285-1.6536-67.386-13.643-67.386-13.643z" />
        <path
           id="path418"
           d="m1227.5 682.29s45.895-9.0621 64.604-10.231c18.709-1.1693 40.633 1.1693 40.633 1.1693s-52.326-9.0621-74.835-3.5079-30.402 12.57-30.402 12.57z" />
        <path
           id="path420"
           d="m1301.1 720.88s47.357-10.524 67.82-10.524c20.463 0 33.033 4.9695 43.264 4.3849s30.579-9.9391 30.579-9.9391-18.886 14.909-39.933 15.493c-21.048 0.58465-25.725-6.4312-54.665-3.5079-28.94 2.9232-47.064 4.0926-47.064 4.0926z" />
        <path
           id="path422"
           d="m1337.7 683.75s26.894 5.5542 43.264 6.4312c16.37 0.87699 46.772-8.7698 46.772-8.7698s-25.432 5.8465-47.064 4.6772c-21.632-1.1693-42.972-2.3386-42.972-2.3386z" />
        <path
           id="path424"
           d="m1157.1 725.12s31.419 11.576 51.676 9.095 41.341-12.816 41.341-12.816-16.95 18.604-32.66 18.604c-31.419 0-60.358-14.883-60.358-14.883z" />
        <path
           id="path426"
           d="m1253.2 742.51s25.432-9.9391 32.448-9.3544c7.0159 0.58465 40.633 9.3544 49.988 9.0621 9.3544-0.29233 34.494-7.3082 34.494-7.3082s-24.848 13.155-35.956 12.862c-11.108-0.29231-36.248-11.401-49.403-10.816-13.155 0.58465-31.571 5.5542-31.571 5.5542z" />
      </g>
      <g
         id="g442"
         fill="#955938"
         transform="translate(-3.786e-6 284.31)">
        <path
           id="path430"
           d="m1140.2 695.36s59.945 6.2012 87.23 6.2012 74.414-7.4414 93.844-8.2682c19.43-0.82683 44.648 5.3744 44.648 5.3744s-37.62-2.8939-57.051-0.82683c-19.43 2.0671-74.001 12.816-101.29 11.162-27.285-1.6536-67.386-13.643-67.386-13.643z" />
        <path
           id="path432"
           d="m1227.5 682.29s45.895-9.0621 64.604-10.231c18.709-1.1693 40.633 1.1693 40.633 1.1693s-52.326-9.0621-74.835-3.5079-30.402 12.57-30.402 12.57z" />
        <path
           id="path434"
           d="m1301.1 720.88s47.357-10.524 67.82-10.524c20.463 0 33.033 4.9695 43.264 4.3849s30.579-9.9391 30.579-9.9391-18.886 14.909-39.933 15.493c-21.048 0.58465-25.725-6.4312-54.665-3.5079-28.94 2.9232-47.064 4.0926-47.064 4.0926z" />
        <path
           id="path436"
           d="m1337.7 683.75s26.894 5.5542 43.264 6.4312c16.37 0.87699 46.772-8.7698 46.772-8.7698s-25.432 5.8465-47.064 4.6772c-21.632-1.1693-42.972-2.3386-42.972-2.3386z" />
        <path
           id="path438"
           d="m1157.1 725.12s31.419 11.576 51.676 9.095 41.341-12.816 41.341-12.816-16.95 18.604-32.66 18.604c-31.419 0-60.358-14.883-60.358-14.883z" />
        <path
           id="path440"
           d="m1253.2 742.51s25.432-9.9391 32.448-9.3544c7.0159 0.58465 40.633 9.3544 49.988 9.0621 9.3544-0.29233 34.494-7.3082 34.494-7.3082s-24.848 13.155-35.956 12.862c-11.108-0.29231-36.248-11.401-49.403-10.816-13.155 0.58465-31.571 5.5542-31.571 5.5542z" />
      </g>
    </g>
    <path
       id="path446"
       stroke-width=".26458px"
       stroke="#000"
       fill="none"
       d="m993.85 648.23 12.819-12.819" />
    <path
       id="path448"
       stroke-width=".26458px"
       stroke="#5f3924"
       fill="none"
       d="m1870.3 648.23 12.819-12.819" />
  </g>
  <g
     transform="translate(-904.92,-595.43)"
     fill="none"
     filter="url(#filter2097)"
     stroke="#ffffff"
     stroke-linecap="round"
     stroke-width="3.9688"
     id="g456">
    <path
       d="m 1190.6,921.91 c 16.757,-0.26724 24.069,-2.7326 43.408,-2.8939"
       id="path452" />
    <path
       d="m 1210.9,913.23 c 0.7254,15.496 2.0671,31.243 2.0671,46.715 0.3605,3.9314 0.1861,6.2639 -0.4134,9.9219"
       id="path454" />
  </g>
  <g
     id="g464"
     filter="url(#filter2109)"
     transform="translate(-905.06616,-593.7763)"
     style="fill:none;stroke:#ffffff;stroke-width:3.9688;stroke-linecap:round">
    <path
       id="path458"
       d="m 1250.2,912.81 c -0.099,19.648 -2.7686,37.095 -2.4804,54.984" />
    <path
       id="path460"
       d="m 1269.6,916.12 c 0.8706,10.185 -1.1735,40.085 -2.0671,52.09" />
    <path
       id="path462"
       d="m 1241.1,937.62 c 4.0512,0.32998 33.745,2.7892 35.14,0" />
  </g>
  <g
     id="g474"
     filter="url(#filter2121)"
     transform="translate(-902.1429,-597.0836)"
     style="fill:none;stroke:#ffffff;stroke-width:3.9688;stroke-linecap:round">
    <path
       id="path466"
       d="m 1289.8,917.77 c -1.0898,13.703 -0.016,28.942 -0.4134,41.341 -0.4474,6.5121 -1.3841,13.637 -1.2402,12.402" />
    <path
       id="path468"
       d="m 1281.6,925.21 c 12.306,1.966 24.995,-5.7878 34.727,-5.7878" />
    <path
       id="path470"
       d="m 1285.3,945.47 c 5.4245,-0.16665 14.027,-4.4383 25.632,-4.5475" />
    <path
       id="path472"
       d="m 1279.5,960.35 c 11.17,0.60977 22.878,2.5084 34.313,2.4805" />
  </g>
  <g
     id="g480"
     filter="url(#filter2133)"
     transform="translate(-909.2608,-595.42998)"
     style="fill:none;stroke:#ffffff;stroke-width:3.9688;stroke-linecap:round">
    <path
       id="path476"
       d="m 1369.2,916.95 c 1.0309,19.668 -2.6846,35.672 -3.3073,52.917" />
    <path
       id="path478"
       d="m 1354.3,916.12 c 13.373,5.1902 24.922,10.669 35.553,13.643 -9.2125,4.9035 -18.444,10.359 -30.179,18.19 10.166,5.1664 22.461,9.6118 30.179,11.989 -9.3851,3.1333 -22.004,5.8193 -35.14,8.6816" />
  </g>
  <g
     id="g486"
     filter="url(#filter2145)"
     transform="translate(-902.8529,-593.7763)"
     style="fill:none;stroke:#ffffff;stroke-width:3.9688;stroke-linecap:round">
    <path
       id="path482"
       d="m 1406,916.12 c -0.2191,8.4356 -0.64,48.596 -4.1341,52.09" />
    <path
       id="path484"
       d="m 1425.4,963.25 c -10.859,-2.552 -18.308,-3.181 -28.525,-6.6146" />
  </g>
  <path
     id="path488"
     filter="url(#filter2157)"
     d="m 526.28,328.54 c 5.8287,16.586 7.9224,32.04 14.883,45.889 6.3351,-13.866 10.858,-33.157 12.962,-45.843"
     style="fill:none;stroke:#ffffff;stroke-width:3.9688;stroke-linecap:round" />
  <g
     id="g496"
     filter="url(#filter2181)"
     transform="translate(-904.92,-602.5203)"
     style="fill:none;stroke:#ffffff;stroke-width:3.9688;stroke-linecap:round">
    <path
       id="path490"
       d="m 1544.1,916.73 c -0.6666,16.336 -1.4207,43.762 -0.5847,60.219" />
    <path
       id="path492"
       d="m 1531.8,916.73 c 9.3268,4.6802 20.136,9.3204 38.002,15.786 -16.37,8.1851 -26.797,13.514 -39.756,19.878" />
    <path
       id="path494"
       d="m 1553.4,940.71 c 10.094,6.257 10.588,28.095 16.37,30.987" />
  </g>
  <path
     id="path1471"
     d="M 821.7207 323.66602 A 1.984375 1.984375 0 0 0 821.68359 323.66797 A 1.984375 1.984375 0 0 0 819.79883 325.74609 C 820.67205 343.71753 820.72624 363.83626 820.62305 374.41406 A 1.984375 1.984375 0 0 0 822.58789 376.41797 A 1.984375 1.984375 0 0 0 824.5918 374.45312 C 824.6956 363.81293 824.6415 343.6593 823.76172 325.55273 A 1.984375 1.984375 0 0 0 821.7207 323.66602 z "
     style="color:#000000;font-style:normal;font-variant:normal;font-weight:normal;font-stretch:normal;font-size:medium;line-height:normal;font-family:sans-serif;font-variant-ligatures:normal;font-variant-position:normal;font-variant-caps:normal;font-variant-numeric:normal;font-variant-alternates:normal;font-variant-east-asian:normal;font-feature-settings:normal;font-variation-settings:normal;text-indent:0;text-align:start;text-decoration:none;text-decoration-line:none;text-decoration-style:solid;text-decoration-color:#000000;letter-spacing:normal;word-spacing:normal;text-transform:none;writing-mode:lr-tb;direction:ltr;text-orientation:mixed;dominant-baseline:auto;baseline-shift:baseline;text-anchor:start;white-space:normal;shape-padding:0;shape-margin:0;inline-size:0;clip-rule:nonzero;display:inline;overflow:visible;visibility:visible;isolation:auto;mix-blend-mode:normal;color-interpolation:sRGB;color-interpolation-filters:linearRGB;solid-color:#000000;solid-opacity:1;vector-effect:none;fill:#ffffff;fill-opacity:1;fill-rule:nonzero;stroke:none;stroke-width:3.96875;stroke-linecap:round;stroke-linejoin:miter;stroke-miterlimit:4;stroke-dasharray:none;stroke-dashoffset:0;stroke-opacity:1;color-rendering:auto;image-rendering:auto;shape-rendering:auto;text-rendering:auto;enable-background:accumulate;stop-color:#000000;stop-opacity:1;opacity:1;filter:url(#filter2229)" />
  <g
     id="g508"
     filter="url(#filter2169)"
     transform="translate(-902.2891,-597.2112)"
     style="fill:none;stroke:#ffffff;stroke-width:3.9688;stroke-linecap:round">
    <path
       id="path500"
       d="m 1476.1,917.9 c -1.0898,13.703 -0.016,28.942 -0.4134,41.341 -0.4474,6.5121 -1.3841,13.637 -1.2402,12.402" />
    <path
       id="path502"
       d="m 1467.8,925.34 c 12.306,1.966 24.995,-5.7878 34.727,-5.7878" />
    <path
       id="path504"
       d="m 1471.5,945.6 c 5.4245,-0.16665 14.027,-4.4383 25.632,-4.5475" />
    <path
       id="path506"
       d="m 1465.7,960.48 c 11.17,0.60977 22.878,2.5084 34.313,2.4805" />
  </g>
  <g
     id="g514"
     filter="url(#filter2193)"
     transform="translate(-905.50465,-600.4115)"
     style="fill:none;stroke:#ffffff;stroke-width:3.9688;stroke-linecap:round">
    <path
       id="path510"
       d="m 1584.4,946.55 c 10.965,1.3232 22.756,1.8499 36.248,0" />
    <path
       id="path512"
       d="m 1584.8,974.89 c 5.8287,-16.586 7.9224,-32.04 14.883,-45.889 6.3351,13.866 10.858,33.157 12.962,45.843" />
  </g>
  <g
     id="g520"
     filter="url(#filter2205)"
     transform="translate(-904.04302,-602.458)"
     style="fill:none;stroke:#ffffff;stroke-width:3.9688;stroke-linecap:round">
    <path
       id="path516"
       d="m 1642.7,923.97 c 1.0309,19.668 -2.6846,35.672 -3.3073,52.917" />
    <path
       id="path518"
       d="m 1627.8,923.15 c 13.373,5.1902 24.922,10.669 35.553,13.643 -9.2125,4.9035 -18.444,10.359 -30.179,18.19 10.166,5.1664 22.461,9.6118 30.179,11.989 -9.3851,3.1333 -22.004,5.8193 -35.14,8.6816" />
  </g>
  <g
     id="g526"
     filter="url(#filter2217)"
     transform="translate(-900.5351,-603.1888)"
     style="fill:none;stroke:#ffffff;stroke-width:3.9688;stroke-linecap:round">
    <path
       id="path522"
       d="m 1685.2,924.71 c 1.0309,19.668 -2.6846,35.672 -3.3073,52.917" />
    <path
       id="path524"
       d="m 1670.3,923.88 c 13.373,5.1902 24.922,10.669 35.553,13.643 -9.2125,4.9035 -18.444,10.359 -30.179,18.19 10.166,5.1664 22.461,9.6118 30.179,11.989 -9.3851,3.1333 -22.004,5.8193 -35.14,8.6816" />
  </g>
  <g
     id="g532"
     filter="url(#filter2241)"
     transform="translate(-896.7349,-601.6064)"
     style="fill:none;stroke:#ffffff;stroke-width:3.9688;stroke-linecap:round">
    <path
       id="path528"
       d="m 1731.7,928.08 c 16.757,-0.26724 24.069,-2.7326 43.408,-2.8939" />
    <path
       id="path530"
       d="m 1751.9,919.4 c 0.7254,15.496 2.0671,31.243 2.0671,46.715 0.3605,3.9314 0.1861,6.2639 -0.4134,9.9219" />
  </g>
  <g
     transform="translate(-904.92,-595.43)"
     fill="#3da6de"
     stroke="#000000"
     stroke-width="1.3229"
     id="g546">
    <path
       d="m 1176.9,686.38 c -25.576,0 -29.628,49.918 -35.408,68.989 l 0.2511,0.0724 c -6.1155,-0.89599 -12.365,-0.83357 -18.378,0.17931 -5.7732,-19.104 -9.7651,-68.65 -35.321,-68.65 -4.4395,0 -8.456,2.9835 -9.3545,6.5774 -2.4742,9.897 10.588,20.02 16.37,26.09 16.978,17.822 13.412,39.962 13.168,40.702 -7.0601,5.6338 -19.284,17.315 -21.937,27.191 -7.5763,35.394 34.119,43.872 50.28,59.05 9.4715,9.4716 -7.4726,21.55 -19.586,15.493 -8.455,-4.2275 -15.842,-10.94 -20.17,-17.247 -11.162,14.297 -9.8849,34.834 7.308,41.949 17.934,7.4212 38.224,10.362 56.419,0.29197 7.8405,-4.3395 10.522,-13.145 11.693,-21.194 6.8175,-46.849 -43.622,-37.55 -55.542,-61.388 -6.5718,-13.144 -0.6029,-23.971 13.447,-23.971 8.2034,-1.0944 22.142,6.5077 27.478,11.693 2.8824,2.8823 4.9355,7.3428 5.2622,7.0161 7.9925,-7.9925 11.12,-24.367 1.6826,-33.804 -2.557,-2.557 -5.1396,-4.3737 -7.8616,-5.7382 -0.3389,-1.3934 -3.5234,-23.097 13.184,-40.635 5.782,-6.0696 18.844,-16.193 16.37,-26.09 -0.8985,-3.5939 -4.915,-6.5774 -9.3545,-6.5774 z m -68.673,73.961 -0.013,0.004 c 0,0.0222 0.01,0.0201 0.013,-0.004 z"
       id="path536" />
    <path
       d="m 1189.8,765.46 c 0,0 -10.723,57.747 -1.1695,126.58 4.7803,-0.007 34.494,0.14624 34.494,0.14624 0,0 -7.7659,-17.412 -9.9389,-23.386 -3.4191,-9.4006 -6.3462,-27.536 -2.6308,-41.364 1.3504,-5.0259 3.8003,-14.178 3.8003,-14.178 l 22.217,41.51 22.217,-41.51 c 0,0 2.4499,9.152 3.8003,14.178 3.7154,13.828 0.7883,31.963 -2.6308,41.364 -2.173,5.9746 -9.939,23.386 -9.939,23.386 0,0 29.714,-0.15373 34.495,-0.14624 9.5534,-68.83 -1.1695,-126.58 -1.1695,-126.58 l -32.448,0.2925 -14.324,54.446 -14.324,-54.446 z"
       id="path538" />
    <path
       d="m 1332,765.75 0.025,20.147 h 36.355 c 2.3377,19.162 1.909,81.516 -2.7813,106.28 h 26.759 c -4.8083,-24.478 -7.6426,-87.489 -5.3493,-106.28 5.3693,-0.10739 32.927,10e-6 32.927,10e-6 l -0.096,-20.147 z"
       id="path540" />
    <path
       d="m 1294.1,765.75 c 4.496,42.49 5.612,84.719 0,126.43 h 26.894 c -4.4722,-41.771 -4.8786,-83.881 0,-126.43 z"
       id="path542" />
    <path
       d="m 1442.4,765.75 c 0,0 -9.9219,32.136 -9.9219,61.075 0,28.939 9.095,65.356 9.095,65.356 h 28.112 c 0,0 -7.9982,-27.678 -8.2682,-44.756 8.2682,-3.7139 17.363,-4.0633 17.363,-4.0633 0,0 9.0826,0.34941 17.351,4.0633 -0.2699,17.078 -8.2682,44.756 -8.2682,44.756 h 28.112 c 0,0 9.095,-36.417 9.095,-65.356 0,-28.939 -9.9218,-61.075 -9.9218,-61.075 h -27.285 c 0,0 9.5085,43.712 9.5085,59.421 -11.52,1.6458 -18.524,1.6536 -18.591,1.6536 h -0.012 c -0.067,-3e-5 -7.071,-0.008 -18.591,-1.6536 0,-15.71 9.5084,-59.421 9.5084,-59.421 z"
       id="path544" />
  </g>
  <path
     d="m 206.98,163.89 c 2.651,-2.5954 8.3313,-3.0694 8.3313,-3.0694 0,0 -6.285,-32.448 -10.231,-41.218 -3.9464,-8.7698 -11.839,-13.008 -13.886,-11.255 -2.0463,1.754 0,12.278 5.408,19.147 5.4081,6.8697 8.6237,19.147 9.3545,24.117 0.7308,4.9695 0.9825,6.5207 1.0231,12.278 z"
     fill="#ffcafb"
     filter="url(#filter2380)"
     id="path548" />
  <path
     d="m 248.08,164.17 c -2.651,-2.5954 -8.3313,-3.0694 -8.3313,-3.0694 0,0 6.285,-32.448 10.231,-41.218 3.9464,-8.7698 11.839,-13.008 13.886,-11.255 2.0463,1.754 0,12.278 -5.408,19.147 -5.4081,6.8697 -8.6237,19.147 -9.3545,24.117 -0.7308,4.9695 -0.9825,6.5207 -1.0231,12.278 z"
     fill="#ffcafb"
     filter="url(#filter2392)"
     id="path550" />
</svg>
